<svg xmlns="http://www.w3.org/2000/svg" xmlns:xlink="http://www.w3.org/1999/xlink" viewBox="0 0 662.43 957.06"><defs><style>.cls-1{fill:none;}.cls-2{clip-path:url(#clip-path);}.cls-3{fill:#ffc4b5;}.cls-3,.cls-4,.cls-5,.cls-6{fill-rule:evenodd;}.cls-4{fill:#fff;}.cls-6{fill:#f57f61;}</style><clipPath id="clip-path" transform="translate(0 0)"><rect class="cls-1" width="662.43" height="957.06"/></clipPath></defs><g id="Layer_2" data-name="Layer 2"><g id="Layer_1-2" data-name="Layer 1"><g id="Artwork_3" data-name="Artwork 3"><g class="cls-2"><g class="cls-2"><path class="cls-3" d="M334.67,953.12c174.05,0,235.54-101.29,254.91-209.45s21.47-506.7,21.47-507H58.29s2.12,398.79,21.48,507,80.86,209.45,254.9,209.45" transform="translate(0 0)"/><path class="cls-4" d="M431.22,940.25a29.57,29.57,0,0,0-58.38,6.58,29.07,29.07,0,0,0,.35,4.5,302,302,0,0,0,58-11.08M299,891.23a29.47,29.47,0,1,0,29.56,29.47A29.52,29.52,0,0,0,299,891.23m-86.75,39.64a29.5,29.5,0,1,0-27.1-14,215.43,215.43,0,0,0,27.1,14M512,896.52A29.53,29.53,0,0,0,463.51,928,203.8,203.8,0,0,0,512,896.52M358.11,858.41a29.48,29.48,0,1,0,29.56,29.47,29.53,29.53,0,0,0-29.56-29.47M432,828.94a29.47,29.47,0,1,0,29.56,29.47A29.54,29.54,0,0,0,432,828.94M294.81,806.38a29.48,29.48,0,1,0,29.56,29.47,29.53,29.53,0,0,0-29.56-29.47m-72.4,0A29.48,29.48,0,1,0,252,835.85a29.53,29.53,0,0,0-29.55-29.47m306-6.21A29.48,29.48,0,1,0,558,829.64a29.54,29.54,0,0,0-29.56-29.47M150.48,800A29.48,29.48,0,1,0,180,829.48,29.54,29.54,0,0,0,150.48,800m222.36-30a29.47,29.47,0,1,0,29.56,29.47A29.53,29.53,0,0,0,372.84,770m78.38-8.14a29.48,29.48,0,1,0,29.56,29.48,29.54,29.54,0,0,0-29.56-29.48m-258.37-14.1a29.47,29.47,0,1,0,29.56,29.47,29.52,29.52,0,0,0-29.56-29.47m-71.93-15.37a29.48,29.48,0,1,0,29.56,29.47,29.54,29.54,0,0,0-29.56-29.47m412-14.11a29.48,29.48,0,1,0,29.56,29.48,29.54,29.54,0,0,0-29.56-29.48m-208.55,0a29.48,29.48,0,1,0,29.56,29.48,29.53,29.53,0,0,0-29.56-29.48" transform="translate(0 0)"/><path class="cls-5" d="M57.17,233.27a4.29,4.29,0,0,0-2.32,2.34c-.48,1.5-.16,3.65-.14,5.63.76,106.42,2.67,212.31,7.09,318.66C64,611.76,66.21,663.62,72.14,715.47c5.64,49.27,18.34,98.43,45.23,140,25.19,38.93,63.21,68.65,108.45,84.58,51.52,18.14,108.4,20.14,158.94,13.62,40.73-5.25,81.06-18.22,114.79-42.62,25.42-18.39,46.19-42.87,61.32-70.53,19.16-35,29.75-74.63,34.9-113.43,4.48-33.73,6.63-67.85,8.59-101.88,6.87-119.49,8.89-239.36,10.07-359.22q.14-14,.23-28.09v-1.17a4.1,4.1,0,0,0-2.5-3.46,7.06,7.06,0,0,0-1.12-.18H58.29l-1.12.18m550.24,7c-.71,107.05-2.68,214.47-7.2,322-2.07,49.2-4.36,98.44-9.61,147.09-4.71,43.65-14.33,87-35,125.72-17.8,33.29-44.35,62-77.2,81.06C440.72,938,396,947.25,352.94,949.12c-54.87,2.37-110.81-4.42-159-31.23a201.18,201.18,0,0,1-70.54-66.35C99.82,815,87.05,771.61,81.16,729.2c-3.83-27.53-5.84-55.27-7.65-83C68.79,573.69,66.59,501,64.86,428.49Q62.63,335,61.94,241.19v-.87Z" transform="translate(0 0)"/><path class="cls-4" d="M607.14,465.78c3.33-119.64,3.91-228.93,3.91-229.07H58.29s.4,74.91,2.43,168.61A106.06,106.06,0,0,0,75,413.94c27.88,13.85,45.12-4.51,69.56,22.77C163,457.28,177.13,550.25,204.36,551c34.44,1,39.22-83.92,94.32-89.41,33.47-3.33,44.95,45.48,79.39,47.4,33.95,1.89,47.43-39.28,78-46.58,27.81-6.63,41.55,1,67.57,6.61,25.67,5.58,57.14,5.11,83.47-3.28" transform="translate(0 0)"/><path class="cls-5" d="M57.17,233.27a4.32,4.32,0,0,0-2.32,2.34c-.51,1.61-.15,4.13-.14,6.39q.59,79.5,2.3,159l.05,2.19a13.07,13.07,0,0,0,.24,3.29,5.12,5.12,0,0,0,1.77,2.08c9,6.36,18.81,11.73,29.61,13.77,13.87,2.63,28.7-1,41.77,7a46.11,46.11,0,0,1,16.68,18c4.39,8.49,7.57,17.58,10.74,26.66,6.91,19.74,12.72,40,22.28,58.45,5.1,9.85,11.63,20.43,22.16,22.06,6.77,1,13.88-1.8,19.3-6.39,11.16-9.46,17.53-23.79,24.73-36.51,7.78-13.75,16.13-27.68,28.73-37a46.74,46.74,0,0,1,25.86-9.47c10.46-.36,20,6.27,27.61,13.7,12.25,11.95,22.78,26.73,39.5,32a42.5,42.5,0,0,0,31-2.53c15.37-7.47,25.63-21.88,39.23-32.62a50.21,50.21,0,0,1,19.89-10,82.13,82.13,0,0,1,33.81-.59c14.28,2.79,28.13,7.56,42.63,9.59,24.49,3.42,49.63,2.08,73.29-5.36a5.06,5.06,0,0,0,1.31-.59,4.3,4.3,0,0,0,1.52-2.85q3.13-113.31,3.89-226.31V238a5.79,5.79,0,0,0-.67-3.42,4.34,4.34,0,0,0-2.93-1.5H58.29l-1.12.18M476,456.26c-11.41.09-23.2,2.1-32.88,7.47-16.34,9.06-27,25.39-42.1,35.17-10.16,6.58-23.16,8.93-35.06,3.38-11.1-5.17-19.21-15-27.47-23.66-8.84-9.23-18.75-18.46-31.46-20.38a34.66,34.66,0,0,0-6.36-.36c-11.32.39-22.35,4.92-31.35,12-18.24,14.31-27.94,37.4-40.34,57.46-5.86,9.48-12.91,19.9-23.7,20.11-5.33.1-9.5-4.19-12.5-8.17-7-9.3-11.25-20.41-15.42-31.45-6.65-17.66-11.91-35.88-19.07-53.36-3.57-8.72-7.56-17-14.8-24a47.62,47.62,0,0,0-28.85-13.52c-9.14-.84-18.48-.1-27.36-2.27-8.13-2-15.62-6.21-22.58-10.95l-.42-.29Q62.57,322.84,61.94,242v-1.63H607.41q-.75,111.42-3.81,222.56v.21c-26.36,7.78-55.14,7.93-81.53,1.92-15-3.42-29.63-8.61-45-8.75H476" transform="translate(0 0)"/><path class="cls-5" d="M652.9,234a3.62,3.62,0,0,1,1.78,1.25,7,7,0,0,1,.92,2.08c5.64,16.69,9.35,34.91,4.78,51.6-1.72,6.3-7.15,10.89-12.77,14.68-15.75,10.63-34.28,16.76-52.41,22.19-40.85,12.25-83.36,18.9-126.1,23.42a1335.83,1335.83,0,0,1-134.44,6.9h-6.94c-58.64-.27-116.9-3.41-174.5-12-38.14-5.66-76.25-13.07-112-27.26-10.32-4.1-20.56-8.66-29.41-15.36C7.48,298.24,3.45,294.28,2,289-2.4,272.9,1.14,255,6.2,239.12c.31-1,.62-1.93,1-2.88l.52-1A3.6,3.6,0,0,1,9.48,234a6.68,6.68,0,0,1,1.09-.17H651.81l1.09.17M13.17,241.08C8.84,254.53,5.92,268.88,8,282.59a39.4,39.4,0,0,0,.79,3.89c1.4,5.51,6.63,9.08,11.78,12.33,15.13,9.56,32.44,15.28,49.72,20.41,43.54,12.91,88.78,19.53,134.18,23.89,41,3.93,82.17,5.61,123.32,5.8h6.73c66.54-.3,134.43-4.2,200.35-16.32,31.14-5.72,62.38-12.79,91.19-25.6,8.2-3.65,16.47-7.63,23-13.61a14,14,0,0,0,4.47-6.79c3-11.41,1.2-23.77-1.54-35.43q-1.17-5-2.71-9.87l-.07-.21Z" transform="translate(0 0)"/><path class="cls-4" d="M331,174.06c176.85,0,320.42,28.41,320.42,63.4S507.85,300.87,331,300.87,10.57,272.46,10.57,237.46s143.58-63.4,320.43-63.4" transform="translate(0 0)"/><path class="cls-5" d="M332,170.44c62.22.06,124.39,3.17,185.69,11.86,32.34,4.58,64.8,10.27,95.29,21.21,12.87,4.62,26,9.66,35.57,19.77,4.15,4.39,7.22,10.39,6.26,16.67-1.21,7.94-7.94,14.21-15.14,18.92-10,6.51-21.22,10.82-32.57,14.57-30.68,10.12-62.79,15.6-95,20-73.41,9.94-147.64,12.4-221.06,10.6-57.08-1.4-114.2-5.4-170.38-15-27.45-4.7-54.9-10.24-80.78-21-9.95-4.14-20-9-27.06-16.83C8.06,245.75,5.34,238.25,8.23,231c3-7.55,10-12.65,16.71-16.64,12-7.12,25.35-11.72,38.82-15.69C90,191,117.1,186.14,144.27,182.3c60.65-8.6,122.21-11.72,183.62-11.85H332M330,177.68c-60.29,0-120.56,3-180,11.12C118.94,193,87.94,198.32,58.11,208c-13.6,4.43-27.71,9.29-38,18.74-.48.45-1,.91-1.41,1.39s-.68.73-1,1.11-.46.55-.68.84c-2.33,3-3.64,7.21-2.15,11,2.73,6.95,10.11,11.36,17.16,15.13C48,264.78,65.69,269.68,83.41,274c44.49,10.8,90.14,15.92,135.89,19.3,84.69,6.26,170.31,5.6,253.7-2.6,35.55-3.5,71-8.3,105.58-16.7,17.68-4.29,35.47-9.24,51.34-17.73,5.62-3,11.23-6.48,15-11.43,1.91-2.49,3.23-5.54,2.78-8.68-.81-5.71-5.8-9.72-10.14-12.79-9.88-7-21.51-11.33-33.19-15.15-17.53-5.75-35.57-9.8-53.72-13.2-46.11-8.65-93-12.95-139.81-15.33-26.92-1.37-53.69-2-80.89-2" transform="translate(0 0)"/><path class="cls-5" d="M350,300.35a3.25,3.25,0,0,1,1.05.21,3.54,3.54,0,0,1,2.41,3.41v16.66c-.06,2.82-4,4.7-6.12,2.61a3.71,3.71,0,0,1-1.11-2.61V304a3.08,3.08,0,0,1,.2-1.21,3.55,3.55,0,0,1,3.41-2.41H350m59.5-.71a3.42,3.42,0,0,1,1,.16c2.83.88,3.22,5.31,3.68,9.08.25,2.14.4,4.3.54,6.45.06,1,.15,2.39.15,2.39,0,3.15-4.81,5.11-6.71,1.95-.78-1.29-.6-3.09-.71-4.79a51.3,51.3,0,0,0-1.5-10.64s-.13-4.61,3.56-4.6m-163.84.71a3.73,3.73,0,0,1,3.54,3.62,127.94,127.94,0,0,1-.93,13.54s-.78,2.7-2.84,3.14a3.74,3.74,0,0,1-4.36-3.79c.31-4.36.89-8.61.9-12.9,0,0,.69-3.5,3.55-3.61Zm-81.45-7.09a2.65,2.65,0,0,1,2.16.86c1.67,1.43,1.08,4.08.89,6.3-.38,4.42-.3,8.86-.31,13.3,0,0,0,2.45-1.55,3.5a3.73,3.73,0,0,1-5.68-2.82,101.36,101.36,0,0,1,.68-17.75c.11-.76,1.1-3.36,3.65-3.39h.16m313.52,0a2.74,2.74,0,0,1,1.06.23c1.81.69,2.3,2.4,2.35,5.37.1,5.09.35,10.19-.56,15.17,0,0-.88,2.87-3.13,3.17a3.73,3.73,0,0,1-4-4.39c0-.14.05-.29.08-.44.84-5,.38-10.18.36-15.24a4.74,4.74,0,0,1,1-2.79,3.35,3.35,0,0,1,2.66-1.09h.15m49.64-5.68a3.55,3.55,0,0,1,.84.15c2.43.75,2.85,3.93,3.59,6.53,1.06,3.7,2.32,7.42,2.56,11.28.2,3-4.46,5.25-6.54,2.34-.84-1.18-.82-2.85-1.13-4.4-.75-3.66-1.85-7.24-2.88-10.84,0,0-.63-2.62.81-4a3.75,3.75,0,0,1,2.75-1M87.54,277.66a3,3,0,0,1,1.11.23c3.23,1.22,2.21,6.8,2,11-.14,3.21-.28,6.52.75,9.57a4.27,4.27,0,0,1-.22,2.83c-1.35,2.58-5.75,2.43-6.83-1.13-1.8-5.92-.67-12.43-.61-18.64,0-1,.95-3.8,3.62-3.85h.16m498.64-2.13a3.16,3.16,0,0,1,1.09.24,3.73,3.73,0,0,1,2.32,3.37V293c-.07,3.16-5,4.93-6.79,1.75a3.56,3.56,0,0,1-.4-1.19,5.07,5.07,0,0,1,0-.56V279.14a3.74,3.74,0,0,1,3.69-3.61h.14M31.59,260.64a2.88,2.88,0,0,1,.92.19c2.75.94,2.68,4.88,3.13,8.06,1,6.65,1.92,13.39,4.79,19.44,0,0,.78,2.69-.79,4.18A3.81,3.81,0,0,1,33.71,291c-.21-.46-.41-.92-.61-1.39-3.18-7.7-4.11-16.18-5.28-24.51a5.09,5.09,0,0,1,0-1.7,3.69,3.69,0,0,1,3.2-2.79,3.78,3.78,0,0,1,.57,0m601.28-2.13a3.06,3.06,0,0,1,1.28.27c1.49.6,2.27,1.9,2.24,4-.09,6.16-1.36,12.27-2.59,18.34l-.12.59c-.6,2.67-4.53,3.88-6.38,1.53-1.39-1.76-.39-4.5.12-7.07a72.57,72.57,0,0,0,1.74-14.05s.56-3.48,3.54-3.61Z" transform="translate(0 0)"/><path class="cls-5" d="M335.46,0c36.17.61,72.67,5.8,106.28,19.33,39.09,15.73,73.38,42.17,100.64,74.42,30.47,36.05,52.75,78.68,69.74,122.6.46,1.18.91,2.37,1.37,3.56s.9,2.75.91,2.8c0,.24.06.48.08.73.76,7.81-4.59,15.11-11.29,20.28-10.62,8.21-23.53,13.07-36.52,17.41-30.52,10.17-62.26,15.93-93.87,20.68A1120.73,1120.73,0,0,1,336,294l-.65,0H316a1101.32,1101.32,0,0,1-149.67-14c-28.58-4.66-57.1-10.22-84.43-19.59-13.91-4.76-28.21-9.88-38.73-20.42-4.56-4.58-7.95-10.85-6.91-17.58l.19-.73c12.17-32.33,27-63.74,46.05-93.16C103,96.92,128.51,68.11,159.6,46.17,194.31,21.69,235.43,7.06,278.1,2.23,290.67.81,303.32.19,316,0h19.5M316,7.23c-36.25.55-72.61,5.73-105.94,19.4C176.22,40.52,146,62.8,121.6,89.46c-35.25,38.47-59.94,85.67-78.3,134.43-.63,4.93,3.1,9.48,6.43,12.42,7.82,6.9,17.77,11.1,27.79,14.89,22.25,8.42,45.69,13.61,69.17,18.05,52.55,9.93,106.06,15.37,159.69,17.27q4.53.17,9.06.28h19.08a1094.79,1094.79,0,0,0,145.06-13.35c27.92-4.44,55.78-9.75,82.77-18.52,13.65-4.43,27.64-9.06,38.48-18.63.51-.45,1-.92,1.49-1.4s.72-.73,1.06-1.12.52-.6.77-.92.38-.48.56-.73a11.9,11.9,0,0,0,2.55-8.24h0c-14.5-38.52-32.81-75.7-57.38-109-24.24-32.81-54.83-61.22-91.44-80C421.2,15.79,378.72,8.07,337,7.27c-7-.13-14,0-21,0" transform="translate(0 0)"/><path class="cls-4" d="M54.73,187a21.81,21.81,0,0,0,5.83-1.41c13.69-5.54,26.08-15.27,40.59-18.7,16.74-3.95,36-1.36,53.06-1.55,10.06-.11,20.06-2.43,30-3.39,24.76-2.39,46.86-17.69,71.66-19.39,21.81-1.49,43.21,6.79,64.87,3.86,23.33-3.16,46.57-14.55,70.7-10.72,37.8,6,68.71,29.84,109.4,30.5,16.52.27,33.24-1.15,49.47,2,10.46,2,19.56,8.54,30,10.46a102.58,102.58,0,0,0,12.12,1.26q9.54,20,18.26,43.11c6.3,39.6-167.17,64.76-276.21,67.44H316C207,287.75,33.48,262.59,39.78,223Q47,203.9,54.73,187" transform="translate(0 0)"/><path class="cls-5" d="M523.79,162.46c12.46,0,25.21.52,36.67,5,7.91,3.09,15.42,7.07,24,8.14,2.47.3,5,.48,7.45.64l.77,0,1.25.3a7.6,7.6,0,0,1,1.06.72,6.94,6.94,0,0,1,1.34,2.3c6.4,13.53,12.14,27.19,17.51,41.4a13.92,13.92,0,0,1,.5,1.73c1.16,8.24-5,16.19-11.2,21-11.2,8.65-25,13.67-38.6,18.09-28.87,9.38-58.83,14.95-88.9,19.56A1114.68,1114.68,0,0,1,336,294l-.65,0H316a1099.74,1099.74,0,0,1-149.67-14c-28.58-4.65-57.1-10.21-84.43-19.58-13.91-4.76-28.21-9.88-38.73-20.43-4.56-4.57-7.95-10.84-6.91-17.57l.19-.72c4.54-12.07,9.49-24.09,14.81-35.73a4.57,4.57,0,0,1,.93-1.54,3.16,3.16,0,0,1,2.52-1.12,29.47,29.47,0,0,0,8.51-2.86c13.65-6.37,26.08-15.32,41.32-18,17.14-3,35.13,0,52.37-.87,9.25-.45,18.36-2.4,27.59-3.35,25.43-2.72,47.87-18.65,74.15-19.49,20.49-.65,40.55,6.64,61,4.12,23.55-2.91,46.3-14.23,70.68-11.06,32.37,4.21,61.49,23.6,94.15,29.15,12.9,2.2,26.32,1.45,39.38,1.48m-142.7-24c-22.22.11-43.06,10.87-66,12-21.52,1.08-43.05-6.92-64.18-3.83-21.84,3.2-41.33,15.46-63.32,18.46-1.31.18-2.63.31-3.94.45l-.91.1c-10.08,1.14-20,3.21-30.17,3.23-18.14,0-36.38-3.21-54.24,2.44-13,4.1-24,12.77-36.87,17.7-.28.1-.55.2-.84.29a23.29,23.29,0,0,1-3.38.87l-.07,0Q49.7,206.83,43.3,223.89c-.63,4.93,3.1,9.49,6.43,12.43,7.82,6.89,17.77,11.09,27.79,14.89,22.24,8.42,45.69,13.6,69.17,18,52.55,9.93,106.06,15.38,159.69,17.28q4.53.15,9.06.27l.6,0h18.49a1098.53,1098.53,0,0,0,144.34-13.25c28.17-4.45,56.33-9.8,83.48-18.62,13.65-4.44,27.64-9.07,38.48-18.63,3.64-3.22,7-7.28,6.43-12.42h0q-5.28-14-11.3-27.79-2.81-6.42-5.79-12.75a72.9,72.9,0,0,1-13.6-1.89c-9.5-2.5-18-8.13-27.64-9.89-20.16-3.71-41.42-.14-61.32-2.79-32.51-4.34-61.84-23.24-94.13-29.11a67.62,67.62,0,0,0-12.39-1.17" transform="translate(0 0)"/><path class="cls-5" d="M276.13,255.08c-1.19,0-2.39,0-3.58,0h-.23a267.17,267.17,0,0,0-32.9,2.74l-.36.06-1,.56-.35,1,.52,1,1.1.39c13.65-.25,27.37.34,40.12,1.26,10.25.75,20.43,1,30.3,1.54,6.58.36,13.13.67,19.74,1.08l1.11-.34.57-.94-.3-1.05-1-.62-.21,0-.48-.1-2.08-.43c-7.47-1.54-15-2.9-22.43-4l-.36-.05q-3-.42-6-.79l-.14,0c-1.85-.2-3.7-.4-5.55-.58,0,0-3.22-.28-5-.39-1.43-.1-2.87-.16-4.3-.22h-.2q-3.5-.09-7-.09m275-32.13c-9.82,14.28-30.15,18-44.57,20-4.76.66-9.62,1.27-14.49,1.83l-.22,0c-5.49.66-11,1.28-16.42,2.24l-1,.59-.34,1.06.55.94,1.1.37h.3l.9,0c9.48-.26,19,.1,28.54-.35a99.84,99.84,0,0,0,13.62-1.48c2-.35,3.87-.83,5.78-1.35l.14,0c9.42-2.76,18.21-7.52,24.27-15.13a37.21,37.21,0,0,0,4.41-7.14l.1-1.15-.65-.88-1.08-.12-.94.67" transform="translate(0 0)"/><path class="cls-3" d="M544,140.74c-7.78-2-11.27-26.54-18.26-29.37-10.06-4.08-19.17-11.22-29.83-13.74-12.3-2.91-26.44-1-39-1.14-7.39-.08-14.74-1.79-22.08-2.5-18.2-1.75-34.43-13-52.65-14.24-16-1.1-31.76,5-47.68,2.83-17.14-2.32-34.22-10.69-51.95-7.88-27.78,4.41-50.49,21.93-80.39,22.42-12.14.2-24.43-.85-36.35,1.46-7.69,1.49-14.38,6.28-22.09,7.69-8.81,1.61-19.56.45-27.91,3.67-6.9,2.66-11,8.23-16.56,12.66-9,7.21-27.24,40.43-27.06,53.36.68,47.19,81,53,114.24,57.66,56.19,7.78,112.68,7.92,169.35,7.53,12.75-.09,24.69,3.25,37.71,2.14,12.65-1.08,24.6-5.33,37.06-7.18,16.32-2.43,32.73-3.74,49.07-5.92,7.33-1,15.07-5,22.23-7,14-3.92,28.52-5.78,42.6-9.62,44.45-12.1,45.89-61-.46-72.83" transform="translate(0 0)"/><path class="cls-6" d="M471.14,213.42l1.5-.63c1.21-.5,1-.44,1.31-.72l.44-.74a7.2,7.2,0,0,0,.39-1.73l.1-.73v-1.5h-1.53a7.35,7.35,0,0,0-2.05.48l-.48.22-.4.25-.58.71a5.06,5.06,0,0,0-.51,1.81l-.06.7c0,.34,0,.85,0,.85l.4,1.46a10.55,10.55,0,0,0,1.48-.43m-180.2-6.36a4,4,0,0,0-1.7.56l-.95,2.07a3.12,3.12,0,0,0,0,1.19c0,.06.33.62.33.62.4.07.41,0,.41,0l1.4-.35c.34-.12.28-.11.28-.11l1.07-2.12c-.11-1.74.31-1.61-.52-1.84a2.38,2.38,0,0,0-.35,0m64.5-3.25c-.84.08-.84.75-.84.75a13.06,13.06,0,0,0,0,1.83l1.52,1.5a7,7,0,0,0,1.54.07s.76,0,.95-.55l.09-.72a7.43,7.43,0,0,0-.1-1.2L357.06,204c-.77-.13-.77-.12-1-.15a4,4,0,0,0-.59,0m-52.67-3.4-.34,1.37c0,.41,0,.54,0,.54l.09.68a1.54,1.54,0,0,0,1.38.93c.34.12.8.31.8.31l.17.07,2-.78a7.66,7.66,0,0,0,.3-1.21c.42-3.46,1-1.81-1.86-2.72a5.47,5.47,0,0,1-.58-.15l-1.9,1m19-1.95c-1.42.08-1,.26-1.14.89l.11,1.67c.1.38.09.31.09.31l2,1.08c.37,0,.3,0,1.36,0l.6-.31c0-.19,0,0,0-.49l0-.45a7.9,7.9,0,0,0-.15-1l-1.51-1.51a3.49,3.49,0,0,0-1.36-.13M147.69,184.59s-.1-.05,0,0h0l.47.67c.22.24.55.57.55.57l1.85,1.06c1.93.68.87.5,1.49.45l-.31-.58c-.66-.72-.47-.49-.69-.68l-1.92-1c-1.93-.65-1.33-.55-1.4-.51m279.57-6.68-.53.56-.65.78-.48.76a1.87,1.87,0,0,0-.26.79c-.24,1.35,0,.54.82,2.9.06.14.15.38.15.38l.76,1.31,1.3-.77a9.16,9.16,0,0,0,1.12-1.27l.28-.4s.33-.53.33-.53c.79-1.61.31-1.82.31-1.82l-.3-.9c-.31-.62-.32-.63-.74-1.43l-.89-1.24-1.22.88M257.15,165.43l-.59.11c-1,.32-1,.39-2.22.74l-1.39.65.73,1.46a10.26,10.26,0,0,0,1.51,1.42c1.09.74.65.62,1.5.75a10.3,10.3,0,0,0,1.37-.2l.21-.09a13.38,13.38,0,0,0,1.62-.86l1.19-.93-.93-1.19a20.14,20.14,0,0,0-1.62-1.36c-1.5-.89-1.2-.51-1.38-.5m-119.22.09c-.72.15-.77,1.52-.77,1.52,0,.34,0,.84,0,.84l1.5,1.6c1.52.61,1,.5,1.49.63l.55-.87a9.78,9.78,0,0,0,.12-1.13l-1.19-2c-.64-.4-.29-.3-1.09-.57a1.23,1.23,0,0,0-.57-.07m234.63-4-.44.45c-.73.84-1.37,1.55-.84,2.52a6.16,6.16,0,0,0,1.27,1.7l1.08,1.08,1.08-1.08s1.61-1.81,1.5-2.55a2.4,2.4,0,0,0-.57-1.1,8.26,8.26,0,0,0-.95-1h-2.13m-140.63-2.68-.45.6c-.18.37-.39.92-.39.92a1.75,1.75,0,0,0-.09.27l.55,2.06c1.71,1.81,1.13,1.31,1.54,1.2.57-.15.3.16.8-1.33.17-.5.12-.51.12-.51l-.82-2.12a5.56,5.56,0,0,0-.67-.75c-.59-.57-.46-.35-.59-.34m232.68-6.16a3.92,3.92,0,0,0-1.3.38l-.2.13c-.84.6-.79.66-.79.66-1.47,1.46-1.28,1.46-1.48,1.76l-.52,1.44,1.43.5c.52.06,1.13.15,2.56.26l1.51-.26c.62-.4.1.06,1.12-.88l.71-.74.51-.61.73-1.31-1.33-.74-.74-.24c-1.91-.49-1.68-.34-2-.36h-.24m-66.36-9.44c-1.73.19-1.2-.19-1.56,1l-.11,1.92,1.43,1.59a3.34,3.34,0,0,0,1.41-.05l.58-.09c.75-.23.65-.32.65-.32s.11-1.12.18-2.11l-1.2-1.79-.39-.07a4.42,4.42,0,0,0-1,0m-111-11.21a6.81,6.81,0,0,0-.08,1.55l.43,1.22c.79.52.93.39.93.39.63.16,1.58.32,1.58.32l1.5.19.18-1.5a9.9,9.9,0,0,0,0-1.5,6.09,6.09,0,0,0-.18-1c-.41-.93-1-.77-1-.77l-.37-.09-.74-.1c-1.23-.09-1.57.75-2.25,1.32m63.37-5.35c-.38.09.05-.52-1.17,1-.33.41-.29.44-.29.44l.06,2.28a8.57,8.57,0,0,0,.46,1s.3.55.76.25l1-1,.18-.22.11-2.37c-.51-1.1-.35-.85-.79-1.31a.59.59,0,0,0-.29-.11m-29.09-4.83c-.21.16.22-.29-.92.79l-.4.43c-.69,1-.68.52-.3,1.65l1.18,1.89,1,1.14,1.13-1c1.15-1.09,1.23-1.37,1.23-1.37l.37-.58c.17-.44.25,0,0-.81a8.9,8.9,0,0,0-.93-1.52l-.25-.33a14.52,14.52,0,0,0-2.12-.28" transform="translate(0 0)"/><path class="cls-5" d="M327.66,0c-24.23.06-48.64,1.67-72,7.67C246.46,10,237,12.6,229.78,19c-2.89,2.58-5.19,6.26-4.77,10.31.62,6.06,6.65,10.42,12.61,13.35,12,5.9,25.57,8.43,39,10.42a353.64,353.64,0,0,0,103.44,0c13.39-2,27-4.54,39-10.42,7.28-3.57,15.24-9.52,12-18-2.12-5.52-7.73-8.68-12.71-11-13.15-6.21-27.84-8.72-42.48-10.66A363.38,363.38,0,0,0,327.66,0M329,7.23c24.79.06,50.09,1.63,73.77,8.4,7.13,2,14.72,4,20,9.4.16.16.31.33.45.5s.24.28.34.42a3.74,3.74,0,0,1,.9,2.9c-.51,2.46-3.06,4.15-5.38,5.57-8.82,5.44-19.46,7.75-29.82,9.76-27.69,5.39-56.13,6.22-84.37,4.51-19.21-1.16-38.54-3.12-57-9.62-4.75-1.67-9.57-3.54-13.31-6.91-1.16-1-2.34-2.32-2.34-3.85,0-2.56,2.51-4.15,4.28-5.37,7.08-4.87,15.74-7.09,24.3-9.08,22.28-5.2,45.37-6.65,68.18-6.63m-1,4.07c-15,0-30.31.94-44.31,5.64-6,2-13,4.93-13,11.37,0,4.49,4.58,7.9,9.18,9.9a76.5,76.5,0,0,0,18.53,4.9,181.66,181.66,0,0,0,65.1-.93c6.46-1.32,13.18-2.87,18.4-6.76,3.12-2.34,5.31-6.35,3.46-10.24-1.77-3.73-5.78-5.7-9.36-7.16-10.09-4.11-21.18-5.38-32.23-6.18-5.24-.37-10.47-.54-15.74-.54m.7,7.23c12.94,0,26,.88,38.32,4.15,3.87,1,8,2.11,10.93,4.64.65.55,1.29.73.33,1.68-2.65,2.62-6.68,3.67-10.64,4.76-12,3.32-24.65,4.19-37.23,4.31-14.72.14-29.77-.57-43.69-5-3.14-1-6.67-2-8.59-4.39-.61-.77.16-1,.77-1.46,3.07-2.5,7.2-3.59,11.23-4.64,12.29-3.19,25.12-4,37.89-4Z" transform="translate(0 0)"/></g></g></g></g></g></svg>