<svg xmlns="http://www.w3.org/2000/svg" xmlns:xlink="http://www.w3.org/1999/xlink" viewBox="0 0 647.98 230.41"><defs><style>.cls-1{fill:none;}.cls-2{clip-path:url(#clip-path);}.cls-3{fill:#fff;}.cls-3,.cls-4,.cls-5,.cls-6{fill-rule:evenodd;}.cls-5{fill:#ffc4b5;}.cls-6{fill:#f57f61;}</style><clipPath id="clip-path" transform="translate(0 0)"><rect class="cls-1" width="647.98" height="230.41"/></clipPath></defs><g id="Layer_2" data-name="Layer 2"><g id="Layer_1-2" data-name="Layer 1"><g id="Artwork_15" data-name="Artwork 15"><g class="cls-2"><g class="cls-2"><path class="cls-3" d="M324,99.93c176.84,0,320.42,28.41,320.42,63.4S500.8,226.74,324,226.74,3.53,198.33,3.53,163.33,147.11,99.93,324,99.93" transform="translate(0 0)"/><path class="cls-4" d="M325,96.31c62.23.06,124.4,3.17,185.7,11.85,32.33,4.58,64.8,10.28,95.29,21.22,12.86,4.62,26,9.66,35.57,19.77,4.15,4.39,7.22,10.39,6.26,16.67-1.21,7.94-7.94,14.21-15.14,18.92-10,6.51-21.22,10.82-32.57,14.57-30.68,10.12-62.79,15.6-95,20-73.41,9.94-147.64,12.4-221.06,10.6-57.08-1.4-114.2-5.41-170.38-15-27.45-4.7-54.91-10.24-80.78-21-10-4.15-20-9-27.07-16.83C1,171.62-1.71,164.12,1.19,156.91c3-7.55,10-12.65,16.71-16.64,12-7.12,25.35-11.72,38.82-15.69,26.27-7.74,53.34-12.57,80.5-16.42,60.66-8.59,122.22-11.71,183.62-11.84H325m-2.07,7.23c-60.29.06-120.56,3-180,11.13-31,4.23-62,9.52-91.89,19.23-13.59,4.43-27.7,9.29-37.95,18.74-.49.45-1,.91-1.41,1.39s-.68.73-1,1.11-.46.55-.68.84c-2.33,3.05-3.64,7.21-2.15,11C10.6,173.94,18,178.35,25,182.12c15.94,8.52,33.62,13.42,51.34,17.73,44.48,10.8,90.13,15.91,135.89,19.3,84.69,6.26,170.3,5.6,253.7-2.61,35.55-3.49,71-8.3,105.58-16.69,17.68-4.29,35.47-9.24,51.34-17.73,5.62-3,11.22-6.48,15-11.43,1.9-2.49,3.23-5.54,2.78-8.68-.81-5.71-5.8-9.72-10.14-12.79-9.88-7-21.51-11.33-33.19-15.16-17.53-5.74-35.57-9.79-53.72-13.19-46.11-8.65-93-13-139.81-15.33-26.92-1.38-53.7-2-80.89-2" transform="translate(0 0)"/><path class="cls-3" d="M47.69,112.83a21.9,21.9,0,0,0,5.83-1.41c13.69-5.54,26.08-15.27,40.58-18.7,16.74-4,36-1.36,53.07-1.55,10.06-.11,20.06-2.43,30-3.39,24.76-2.39,46.86-17.69,71.65-19.39,21.82-1.49,43.22,6.79,64.88,3.86,23.32-3.16,46.57-14.55,70.7-10.72,37.8,6,68.71,29.84,109.4,30.5,16.51.27,33.23-1.15,49.47,2,10.45,2,19.56,8.54,30.05,10.46a102.36,102.36,0,0,0,12.12,1.26q9.53,20,18.26,43.11c6.3,39.6-167.18,64.76-276.21,67.44H309c-109-2.68-282.51-27.84-276.21-67.44q7.18-19.11,14.95-36" transform="translate(0 0)"/><path class="cls-4" d="M516.75,88.33c12.46,0,25.21.52,36.67,5,7.91,3.09,15.42,7.07,24.05,8.13,2.47.31,5,.49,7.45.65l.77,0,1.24.3a6.58,6.58,0,0,1,1.06.72,6.71,6.71,0,0,1,1.35,2.3c6.4,13.53,12.14,27.19,17.51,41.4a13.92,13.92,0,0,1,.5,1.73c1.16,8.24-5,16.19-11.21,21-11.2,8.65-25,13.67-38.6,18.09-28.86,9.38-58.83,14.95-88.89,19.56A1116.72,1116.72,0,0,1,328.9,219.88h-.64l-.69,0H308.9a1102.94,1102.94,0,0,1-149.66-14c-28.58-4.65-57.1-10.21-84.44-19.58-13.9-4.76-28.2-9.88-38.72-20.43-4.56-4.57-7.95-10.84-6.91-17.57l.19-.73c4.54-12.06,9.49-24.08,14.8-35.72a4.74,4.74,0,0,1,.94-1.55,3.17,3.17,0,0,1,2.52-1.11,29.41,29.41,0,0,0,8.5-2.86C69.77,100,82.21,91,97.45,88.35c17.14-3,35.13,0,52.37-.87,9.25-.46,18.36-2.4,27.59-3.35,25.43-2.72,47.87-18.65,74.15-19.49,20.48-.65,40.55,6.64,61,4.12,23.55-2.91,46.3-14.23,70.67-11.06,32.38,4.21,61.5,23.59,94.15,29.15,12.91,2.2,26.33,1.45,39.39,1.48M374,64.36c-22.21.12-43.06,10.88-66,12-21.52,1.08-43-6.92-64.18-3.83C222.07,75.75,202.58,88,180.59,91c-1.31.18-2.63.31-3.94.45l-.91.09c-10.08,1.15-20,3.22-30.17,3.24-18.14,0-36.38-3.21-54.24,2.44-13,4.1-24,12.77-36.87,17.69q-.42.16-.84.3a23.09,23.09,0,0,1-3.39.87l-.06,0q-7.52,16.57-13.91,33.64c-.63,4.93,3.1,9.48,6.43,12.43,7.81,6.89,17.77,11.09,27.79,14.89,22.24,8.42,45.69,13.6,69.16,18,52.56,9.93,106.07,15.37,159.69,17.28l9.07.27.59,0h18.49a1098.52,1098.52,0,0,0,144.35-13.25c28.17-4.45,56.33-9.8,83.48-18.62,13.65-4.44,27.64-9.07,38.48-18.63,3.64-3.22,7.05-7.29,6.43-12.42h0q-5.29-14-11.3-27.79-2.8-6.42-5.8-12.75a73,73,0,0,1-13.6-1.89c-9.49-2.5-18-8.13-27.63-9.9-20.16-3.7-41.43-.13-61.32-2.78-32.52-4.34-61.85-23.24-94.13-29.11A68.63,68.63,0,0,0,374,64.36" transform="translate(0 0)"/><path class="cls-4" d="M269.09,181l-3.59,0h-.22a265.23,265.23,0,0,0-32.9,2.74l-.36.06-1,.56-.35,1,.52,1,1.09.39c13.66-.25,27.38.34,40.13,1.25,10.25.76,20.43,1,30.29,1.55,6.58.35,13.14.67,19.75,1.08l1.11-.34.57-.94-.3-1.05-1-.62-.21,0-.48-.1-2.08-.44c-7.48-1.54-15-2.9-22.43-4l-.36-.06-6-.78-.14,0c-1.85-.2-3.7-.4-5.55-.58,0,0-3.23-.28-5-.4-1.42-.09-2.86-.15-4.29-.21h-.2q-3.49-.09-7-.09m275-32.14c-9.81,14.29-30.15,18-44.56,20-4.76.66-9.62,1.27-14.49,1.83l-.22,0c-5.49.67-11,1.28-16.42,2.25l-1,.59-.33,1.06.54.94,1.11.37h.3l.9,0c9.48-.26,19,.1,28.54-.35A101.44,101.44,0,0,0,512.11,174c1.95-.36,3.87-.83,5.78-1.35l.13,0c9.43-2.76,18.22-7.52,24.27-15.13a36.77,36.77,0,0,0,4.42-7.14l.1-1.15-.65-.88-1.08-.12-1,.66" transform="translate(0 0)"/><path class="cls-5" d="M537,66.61c-7.78-2-11.27-26.54-18.27-29.37C508.68,33.16,499.57,26,488.91,23.49c-12.3-2.9-26.44-1-39-1.13-7.39-.08-14.73-1.79-22.07-2.5-18.2-1.75-34.43-13-52.65-14.24-16-1.1-31.76,5-47.68,2.83C310.37,6.13,293.29-2.24,275.56.57,247.78,5,225.07,22.5,195.17,23c-12.14.19-24.43-.85-36.36,1.46-7.68,1.49-14.37,6.28-22.08,7.69-8.81,1.61-19.56.45-27.91,3.67-6.9,2.66-11,8.22-16.57,12.66-9,7.21-27.23,40.43-27,53.36.68,47.19,81,53.05,114.24,57.66,56.19,7.78,112.68,7.92,169.34,7.52,12.76-.09,24.7,3.26,37.72,2.15,12.65-1.08,24.6-5.33,37.06-7.18,16.32-2.43,32.73-3.74,49.07-5.92,7.33-1,15.07-5,22.22-7,14-3.92,28.53-5.78,42.61-9.62,44.45-12.1,45.88-61-.46-72.83" transform="translate(0 0)"/><path class="cls-6" d="M464.1,139.29l1.5-.63c1.21-.5,1-.44,1.31-.72l.44-.74a7.78,7.78,0,0,0,.39-1.73l.1-.73v-1.5h-1.53a7.35,7.35,0,0,0-2.05.48l-.48.22-.4.25-.59.71a5.13,5.13,0,0,0-.5,1.81c0,.24-.05.47-.06.7s0,.85,0,.85l.4,1.46a10.55,10.55,0,0,0,1.48-.43m-180.18-6.36a3.91,3.91,0,0,0-1.69.56l-1,2.07a3.36,3.36,0,0,0,0,1.19c0,.06.34.62.34.62.39.07.41,0,.41,0l1.4-.35c.34-.12.28-.11.28-.11l1.07-2.12c-.12-1.74.3-1.61-.53-1.84a2.25,2.25,0,0,0-.35,0m64.49-3.25c-.84.08-.83.75-.83.75a11.58,11.58,0,0,0,0,1.83l1.52,1.5a7,7,0,0,0,1.54.07s.76,0,.95-.55l.09-.72a9.76,9.76,0,0,0-.11-1.2l-1.5-1.52c-.77-.13-.77-.12-1-.15a4.13,4.13,0,0,0-.6,0m-52.66-3.4-.33,1.37c-.05.41-.05.54-.05.54l.09.68a1.54,1.54,0,0,0,1.39.93l.79.31.17.07,2-.78a6.62,6.62,0,0,0,.3-1.21c.42-3.46,1-1.81-1.86-2.72a5.47,5.47,0,0,1-.58-.15l-1.9,1m19-2c-1.42.08-1,.26-1.14.89l.11,1.67c.1.38.09.31.09.31l2,1.08c.37,0,.3,0,1.36,0l.6-.31c0-.19,0,0,0-.49l0-.45a7.9,7.9,0,0,0-.15-1l-1.51-1.51a3.49,3.49,0,0,0-1.36-.13m-174-13.87s-.1,0,0,0h0l.47.67c.21.24.54.57.54.57l1.85,1.06c1.93.68.88.5,1.49.45l-.31-.58c-.66-.72-.46-.49-.69-.68l-1.91-1c-1.94-.65-1.34-.55-1.4-.51m279.52-6.68-.53.56c-.32.38-.64.78-.64.78l-.48.76a2,2,0,0,0-.27.79c-.24,1.35-.05.54.82,2.9.06.14.15.38.15.38l.77,1.31,1.3-.77a8.49,8.49,0,0,0,1.11-1.27l.29-.4.32-.53c.79-1.61.31-1.82.31-1.82l-.3-.9c-.3-.62-.31-.63-.74-1.43l-.89-1.24-1.22.88M250.14,91.3l-.59.11c-1,.32-1,.39-2.22.74l-1.39.65.73,1.46a10.26,10.26,0,0,0,1.51,1.42c1.09.74.65.62,1.5.75a10.53,10.53,0,0,0,1.37-.2l.21-.09a13.38,13.38,0,0,0,1.62-.86l1.19-.93-.93-1.19a20.14,20.14,0,0,0-1.62-1.36c-1.5-.89-1.2-.51-1.38-.5m-119.2.09c-.73.15-.77,1.52-.77,1.52,0,.34,0,.84,0,.84l1.51,1.6c1.52.61,1,.5,1.49.63l.54-.87a7.41,7.41,0,0,0,.13-1.13l-1.19-2c-.65-.4-.29-.3-1.1-.57a1.2,1.2,0,0,0-.56-.07m234.6-4-.45.45c-.73.84-1.36,1.55-.84,2.52a6.09,6.09,0,0,0,1.28,1.7l1.07,1.08,1.08-1.08s1.61-1.81,1.5-2.55a2.4,2.4,0,0,0-.57-1.1,8.26,8.26,0,0,0-.95-1h-2.12M224.92,84.74l-.45.6c-.17.37-.39.92-.39.92a1.75,1.75,0,0,0-.09.27l.55,2.06c1.71,1.81,1.14,1.31,1.55,1.2.57-.15.3.16.8-1.33.16-.5.11-.51.11-.51l-.82-2.12a4.21,4.21,0,0,0-.67-.75c-.58-.57-.46-.35-.59-.34m232.65-6.16a3.92,3.92,0,0,0-1.3.38l-.2.13c-.84.6-.79.66-.79.66-1.47,1.46-1.28,1.46-1.48,1.76L453.28,83l1.43.5c.52.06,1.13.15,2.56.26l1.51-.26c.62-.4.1.06,1.12-.88l.71-.74.51-.61.73-1.31-1.33-.74-.74-.24c-1.91-.49-1.68-.34-2-.36h-.24m-66.35-9.44c-1.73.19-1.2-.19-1.56,1L389.55,72,391,73.62a3.34,3.34,0,0,0,1.41-.05l.58-.09c.75-.23.65-.32.65-.32s.11-1.12.18-2.11l-1.2-1.79-.39-.07a4.46,4.46,0,0,0-1,0m-111-11.21a6.18,6.18,0,0,0-.07,1.55l.42,1.22c.8.52.93.39.93.39.64.16,1.59.32,1.59.32l1.5.19.18-1.5a9.9,9.9,0,0,0,0-1.5,7.43,7.43,0,0,0-.18-1c-.41-.93-1-.77-1-.77l-.37-.09-.74-.1c-1.23-.09-1.56.75-2.25,1.32m63.36-5.35c-.37.09.05-.52-1.16,1-.33.41-.29.44-.29.44l.06,2.28a6,6,0,0,0,.45,1s.31.55.76.25l1-1,.18-.22.1-2.37c-.5-1.1-.34-.85-.78-1.31a.65.65,0,0,0-.3-.11m-29.08-4.83c-.21.16.22-.29-.92.79l-.4.43c-.69,1-.68.52-.3,1.65l1.18,1.89,1,1.14,1.13-1c1.15-1.09,1.23-1.37,1.23-1.37l.37-.58c.17-.44.25,0,0-.81a8.9,8.9,0,0,0-.93-1.52l-.25-.33a14.52,14.52,0,0,0-2.12-.28" transform="translate(0 0)"/></g></g></g></g></g></svg>