<svg xmlns="http://www.w3.org/2000/svg" xmlns:xlink="http://www.w3.org/1999/xlink" viewBox="0 0 647.98 198.4"><defs><style>.cls-1{fill:none;}.cls-2{clip-path:url(#clip-path);}.cls-3{fill:#fff;}.cls-3,.cls-4,.cls-5,.cls-6{fill-rule:evenodd;}.cls-5{fill:#401f05;}.cls-6{fill:#e1b18c;}</style><clipPath id="clip-path" transform="translate(0 0)"><rect class="cls-1" width="647.98" height="198.4"/></clipPath></defs><g id="Layer_2" data-name="Layer 2"><g id="Layer_1-2" data-name="Layer 1"><g id="Artwork_20" data-name="Artwork 20"><g class="cls-2"><g class="cls-2"><path class="cls-3" d="M324,67.92c176.85,0,320.43,28.41,320.43,63.4S500.8,194.72,324,194.72,3.53,166.31,3.53,131.32,147.11,67.92,324,67.92" transform="translate(0 0)"/><path class="cls-4" d="M325,64.3c62.23.06,124.4,3.17,185.7,11.85C543,80.73,575.49,86.43,606,97.37c12.86,4.62,26,9.66,35.57,19.76,4.15,4.4,7.22,10.39,6.26,16.68-1.21,7.94-7.94,14.21-15.14,18.92-10,6.51-21.22,10.82-32.57,14.56-30.68,10.12-62.79,15.61-95,20-73.41,9.94-147.64,12.39-221.06,10.59-57.08-1.4-114.2-5.4-170.38-15-27.45-4.71-54.91-10.24-80.78-21-10-4.15-20-9-27.07-16.83C1,139.6-1.71,132.1,1.19,124.9c3-7.56,10-12.65,16.71-16.64,12-7.12,25.35-11.72,38.82-15.69C83,84.83,110.06,80,137.22,76.15c60.66-8.59,122.22-11.71,183.62-11.85H325m-2.07,7.23c-60.29.06-120.56,3-180,11.12-31,4.24-62,9.53-91.89,19.24-13.59,4.43-27.7,9.28-37.95,18.74q-.73.66-1.41,1.38c-.35.36-.68.73-1,1.11s-.46.56-.68.84c-2.33,3.05-3.64,7.22-2.15,11C10.6,141.92,18,146.33,25,150.1c15.94,8.53,33.62,13.43,51.34,17.73,44.48,10.8,90.13,15.92,135.89,19.3a1484.27,1484.27,0,0,0,253.7-2.6c35.55-3.5,71-8.3,105.58-16.7,17.68-4.29,35.47-9.23,51.34-17.73,5.62-3,11.22-6.47,15-11.42,1.9-2.49,3.23-5.54,2.78-8.69-.81-5.71-5.8-9.72-10.14-12.79-9.88-7-21.51-11.32-33.19-15.15-17.53-5.74-35.57-9.79-53.72-13.2-46.11-8.64-93-12.94-139.81-15.33-26.92-1.37-53.7-2-80.89-2" transform="translate(0 0)"/><path class="cls-3" d="M47.69,80.82a22.2,22.2,0,0,0,5.83-1.41C67.21,73.87,79.6,64.14,94.1,60.71c16.74-4,36-1.36,53.07-1.55,10.06-.11,20.06-2.43,30-3.39,24.76-2.39,46.86-17.69,71.65-19.39,21.82-1.49,43.22,6.79,64.88,3.85,23.32-3.16,46.57-14.55,70.7-10.71,37.8,6,68.71,29.83,109.4,30.5,16.52.27,33.24-1.15,49.47,2,10.45,2,19.56,8.55,30.05,10.46a102.33,102.33,0,0,0,12.12,1.27q9.53,20,18.26,43.11c6.3,39.6-167.18,64.76-276.21,67.44H309c-109-2.68-282.51-27.84-276.21-67.44q7.18-19.11,14.95-36" transform="translate(0 0)"/><path class="cls-4" d="M516.75,56.31c12.46,0,25.21.53,36.67,5,7.91,3.08,15.42,7.07,24.05,8.13,2.47.31,5,.49,7.45.64l.77,0,1.24.3a6.58,6.58,0,0,1,1.06.72,6.67,6.67,0,0,1,1.35,2.29c6.4,13.54,12.14,27.19,17.51,41.41a14.53,14.53,0,0,1,.5,1.72c1.16,8.25-5,16.19-11.21,21-11.2,8.65-25,13.66-38.6,18.09-28.86,9.37-58.83,14.94-88.89,19.56A1114.82,1114.82,0,0,1,328.9,187.86l-.64,0-.69,0H308.9a1102.94,1102.94,0,0,1-149.66-14c-28.58-4.65-57.1-10.21-84.44-19.58-13.9-4.77-28.2-9.88-38.72-20.43-4.56-4.57-7.95-10.84-6.91-17.58l.19-.72c4.54-12.06,9.49-24.08,14.8-35.72a4.74,4.74,0,0,1,.94-1.55,3.11,3.11,0,0,1,2.52-1.11,29.41,29.41,0,0,0,8.5-2.86C69.77,68,82.21,59,97.45,56.34c17.14-3,35.13,0,52.37-.87,9.25-.46,18.36-2.41,27.59-3.35,25.43-2.72,47.87-18.65,74.15-19.49,20.48-.65,40.55,6.64,61,4.12,23.55-2.91,46.3-14.23,70.67-11.06,32.38,4.21,61.5,23.59,94.15,29.15,12.91,2.2,26.33,1.45,39.39,1.47M374,32.35c-22.21.12-43.06,10.87-66,12-21.52,1.09-43-6.91-64.18-3.82C222.07,43.74,202.58,56,180.59,59c-1.31.18-2.63.31-3.94.44l-.91.1c-10.08,1.15-20,3.22-30.17,3.23-18.14,0-36.38-3.21-54.24,2.44-13,4.1-24,12.78-36.87,17.7q-.42.17-.84.3a25.92,25.92,0,0,1-3.39.87h-.06q-7.52,16.59-13.91,33.65c-.63,4.93,3.1,9.48,6.43,12.42,7.81,6.9,17.77,11.1,27.79,14.89,22.24,8.42,45.69,13.61,69.16,18.05,52.56,9.93,106.07,15.37,159.69,17.27q4.55.17,9.07.28h19.08a1096.8,1096.8,0,0,0,144.35-13.24c28.17-4.45,56.33-9.81,83.48-18.63,13.65-4.43,27.64-9.06,38.48-18.63,3.64-3.21,7.05-7.28,6.43-12.41h0q-5.29-14-11.3-27.79-2.8-6.42-5.8-12.75a72.21,72.21,0,0,1-13.6-1.9c-9.49-2.49-18-8.12-27.63-9.89-20.16-3.7-41.43-.13-61.32-2.79-32.52-4.33-61.85-23.24-94.13-29.11A69.53,69.53,0,0,0,374,32.35" transform="translate(0 0)"/><path class="cls-5" d="M508.83,34.21c-6.88-1.75-15.06,1.19-21.24-1.31-8.89-3.6-16.94-9.92-26.35-12.14-10.87-2.57-23.36-.89-34.46-1-6.53-.07-13-1.58-19.5-2.2C391.2,16,376.86,6.07,360.76,5c-14.17-1-28.06,4.41-42.12,2.5C303.49,5.41,288.4-2,272.73.51c-24.54,3.89-44.6,19.37-71,19.8-10.72.17-21.58-.75-32.12,1.29-6.79,1.32-12.7,5.55-19.51,6.8-7.78,1.42-17.28.39-24.66,3.24-6.1,2.35-9.74,7.27-14.63,11.19-8,6.36-19,11.08-18.8,22.5.6,41.69,71.53,46.87,100.93,50.94,49.65,6.88,99.55,7,149.62,6.65,11.27-.08,21.82,2.88,33.32,1.9,11.18-1,21.73-4.71,32.74-6.35,14.42-2.14,28.92-3.3,43.35-5.23,6.48-.86,13.32-4.41,19.64-6.18,12.4-3.47,25.2-5.11,37.64-8.5,39.28-10.69,40.54-53.92-.4-64.35" transform="translate(0 0)"/><path class="cls-6" d="M448,157.19l1.61-.25c1.3-.19,1.1-.18,1.45-.38l.6-.61a7,7,0,0,0,.81-1.58l.27-.68.36-1.46-1.48-.37a7.59,7.59,0,0,0-2.1,0l-.52.1-.45.15c-.05,0-.74.55-.74.55a4.89,4.89,0,0,0-.93,1.63c-.08.22-.16.44-.23.66s-.22.82-.22.82l0,1.51a10,10,0,0,0,1.53-.05m-173.2-50.14a4.13,4.13,0,0,0-1.78.13L271.58,109a3.19,3.19,0,0,0-.27,1.16c0,.07.18.68.18.68.36.17.39.11.39.11h1.45l.29,0,1.56-1.79c.31-1.72.69-1.5-.06-1.92l-.33-.12m63.34,12.59a.79.79,0,0,0-1,.52,12,12,0,0,0-.48,1.77l1.11,1.82a7.12,7.12,0,0,0,1.47.45s.74.21,1.06-.3l.26-.67a8.51,8.51,0,0,0,.2-1.2l-1.09-1.84c-.72-.31-.72-.3-1-.39a3.62,3.62,0,0,0-.58-.16m-50.25-16.15-.66,1.25c-.14.39-.17.51-.17.51l-.08.68a1.52,1.52,0,0,0,1.11,1.24l.7.5.15.11,2.11-.27a8.13,8.13,0,0,0,.59-1.11c1.25-3.25,1.44-1.5-1.15-3.09C290,103,290,103,290,103l-2.08.47m18.89,2.74c-1.4-.26-1,0-1.33.59l-.3,1.65c0,.39,0,.32,0,.32l1.67,1.53c.36.08.28.1,1.33.3l.65-.16c.08-.17,0,0,.16-.47l.08-.44a7.64,7.64,0,0,0,.1-1l-1.1-1.82a3.32,3.32,0,0,0-1.28-.47M141.35,50.32s-.08-.08,0,0h0l.29.76.4.68,1.53,1.48c1.7,1.13.73.69,1.33.8l-.15-.64a4,4,0,0,0-.51-.83l-1.62-1.42c-1.71-1.09-1.16-.85-1.23-.83M414.1,112.05l-.65.4-.82.61-.65.62a1.84,1.84,0,0,0-.45.7c-.56,1.25-.18.51.09,3,0,.14.05.4.05.4l.42,1.46,1.45-.44a7.5,7.5,0,0,0,1.39-1l.38-.31.45-.44c1.15-1.37.74-1.69.74-1.69l-.07-.94c-.15-.68-.16-.69-.37-1.57l-.56-1.42-1.4.56M252.17,58.45l-.6,0c-1,.06-1,.13-2.33.18l-1.5.29.35,1.59a11.45,11.45,0,0,0,1.11,1.75c.88,1,.49.76,1.28,1.09a10.14,10.14,0,0,0,1.38.13l.22,0a13,13,0,0,0,1.79-.44l1.37-.62L254.63,61a21,21,0,0,0-1.24-1.71c-1.23-1.24-1-.79-1.22-.82m-115.63-29c-.74,0-1.12,1.3-1.12,1.3-.12.32-.25.8-.25.8l1.07,1.91c1.32,1,.86.74,1.29,1l.74-.7a8,8,0,0,0,.4-1.06L138,30.47c-.53-.54-.21-.36-.92-.82a1.36,1.36,0,0,0-.53-.21m228.51,53.4-.54.32c-.92.64-1.7,1.17-1.43,2.25a5.88,5.88,0,0,0,.82,2l.78,1.32,1.31-.8s2-1.35,2.07-2.1a2.38,2.38,0,0,0-.28-1.21,8.37,8.37,0,0,0-.67-1.21l-2.06-.52M229.31,45.93l-.58.47c-.26.31-.6.8-.6.8l-.15.24,0,2.13c1.21,2.17.78,1.54,1.2,1.54.59,0,.26.23,1.1-1.1.28-.44.24-.46.24-.46l-.27-2.26a5.35,5.35,0,0,0-.48-.88c-.42-.71-.35-.45-.49-.48M456.47,96.72a4,4,0,0,0-1.35,0l-.23.08c-1,.38-.93.44-.93.44-1.77,1.07-1.59,1.11-1.86,1.35l-.86,1.27,1.27.83c.49.19,1.06.43,2.42.88l1.53.12c.69-.24.07.08,1.29-.58l.87-.55.65-.46,1-1.1-1.12-1-.66-.41c-1.73-.94-1.54-.74-1.82-.83l-.23,0M394.42,71.37c-1.72-.23-1.12-.47-1.75.56l-.58,1.84,1,1.89a3.3,3.3,0,0,0,1.39.3l.57.05c.79,0,.71-.15.71-.15s.39-1.06.7-2l-.73-2-.36-.16a4.46,4.46,0,0,0-.95-.3M289.5,33.43a6.74,6.74,0,0,0-.45,1.48l.12,1.28c.64.71.81.61.81.61.57.31,1.45.69,1.45.69l1.41.56.54-1.42a9,9,0,0,0,.38-1.45,6.93,6.93,0,0,0,.08-1c-.18-1-.8-1-.8-1L292.7,33l-.69-.28c-1.17-.38-1.7.35-2.51.74m62.76,10.26c-.38,0,.18-.48-1.36.67-.42.31-.39.35-.39.35l-.5,2.22A7.17,7.17,0,0,0,350.2,48s.16.61.68.43l1.17-.69.23-.17.69-2.27c-.23-1.2-.13-.91-.45-1.47a.65.65,0,0,0-.26-.18m-27-11.78c-.24.11.29-.23-1.08.54l-.5.33c-.91.79-.78.34-.68,1.53l.68,2.11.69,1.35,1.34-.7a5.44,5.44,0,0,0,1.53-1l.5-.47c.27-.39.24,0,.2-.78a8.53,8.53,0,0,0-.53-1.71c-.14-.31-.16-.37-.16-.37a14.21,14.21,0,0,0-2-.8" transform="translate(0 0)"/></g></g></g></g></g></svg>