<svg xmlns="http://www.w3.org/2000/svg" xmlns:xlink="http://www.w3.org/1999/xlink" viewBox="0 0 647.98 198.4"><defs><style>.cls-1{fill:none;}.cls-2{clip-path:url(#clip-path);}.cls-3{fill:#ff84a5;}.cls-3,.cls-4,.cls-5{fill-rule:evenodd;}.cls-5{fill:#ffb5c8;}</style><clipPath id="clip-path" transform="translate(0 0)"><rect class="cls-1" width="647.98" height="198.4"/></clipPath></defs><g id="Layer_2" data-name="Layer 2"><g id="Layer_1-2" data-name="Layer 1"><g id="Artwork_17" data-name="Artwork 17"><g class="cls-2"><g class="cls-2"><path class="cls-3" d="M324,67.92c176.84,0,320.42,28.41,320.42,63.4S500.8,194.72,324,194.72,3.53,166.31,3.53,131.32,147.11,67.92,324,67.92" transform="translate(0 0)"/><path class="cls-4" d="M325,64.3c62.23.06,124.4,3.17,185.7,11.85C543,80.73,575.49,86.43,606,97.37c12.86,4.62,26,9.66,35.57,19.76,4.15,4.4,7.22,10.39,6.26,16.68-1.21,7.94-7.94,14.21-15.14,18.92-10,6.51-21.22,10.82-32.57,14.56-30.68,10.12-62.79,15.61-95,20-73.41,9.94-147.64,12.39-221.06,10.59-57.08-1.4-114.2-5.4-170.38-15-27.45-4.71-54.91-10.24-80.78-21-10-4.15-20-9-27.07-16.83C1,139.6-1.71,132.1,1.19,124.9c3-7.56,10-12.65,16.71-16.64,12-7.12,25.35-11.72,38.82-15.69C83,84.83,110.06,80,137.22,76.15c60.66-8.59,122.22-11.71,183.62-11.85H325m-2.07,7.23c-60.29.06-120.56,3-180,11.12-31,4.24-62,9.53-91.89,19.24-13.59,4.43-27.7,9.28-37.95,18.74q-.73.66-1.41,1.38c-.35.36-.68.73-1,1.11s-.46.56-.68.84c-2.33,3.05-3.64,7.22-2.15,11C10.6,141.92,18,146.33,25,150.1c15.94,8.53,33.62,13.43,51.34,17.73,44.48,10.8,90.13,15.92,135.89,19.3a1484.27,1484.27,0,0,0,253.7-2.6c35.55-3.5,71-8.3,105.58-16.7,17.68-4.29,35.47-9.23,51.34-17.73,5.62-3,11.22-6.47,15-11.42,1.9-2.49,3.23-5.54,2.78-8.69-.81-5.71-5.8-9.72-10.14-12.79-9.88-7-21.51-11.32-33.19-15.15-17.53-5.74-35.57-9.79-53.72-13.2-46.11-8.64-93-12.94-139.81-15.33-26.92-1.37-53.7-2-80.89-2" transform="translate(0 0)"/><path class="cls-3" d="M47.69,80.82a22.2,22.2,0,0,0,5.83-1.41C67.21,73.87,79.6,64.14,94.1,60.71c16.74-4,36-1.36,53.07-1.55,10.06-.11,20.06-2.43,30-3.39,24.76-2.39,46.86-17.69,71.65-19.39,21.82-1.49,43.22,6.79,64.88,3.85,23.32-3.16,46.57-14.55,70.7-10.71,37.8,6,68.71,29.83,109.4,30.5,16.52.27,33.24-1.15,49.47,2,10.46,2,19.56,8.55,30.05,10.46a102.33,102.33,0,0,0,12.12,1.27q9.53,20,18.26,43.11c6.3,39.6-167.18,64.76-276.21,67.44H309c-109-2.68-282.51-27.84-276.21-67.44q7.18-19.11,14.95-36" transform="translate(0 0)"/><path class="cls-4" d="M516.75,56.31c12.46,0,25.21.53,36.66,5,7.91,3.08,15.43,7.07,24.06,8.13,2.47.31,5,.49,7.45.64l.77,0,1.24.3a6.58,6.58,0,0,1,1.06.72,6.67,6.67,0,0,1,1.35,2.29c6.4,13.54,12.14,27.19,17.51,41.41a14.53,14.53,0,0,1,.5,1.72c1.16,8.25-5,16.19-11.21,21-11.2,8.65-25,13.66-38.6,18.09-28.86,9.37-58.83,14.94-88.9,19.56A1114.49,1114.49,0,0,1,328.9,187.86l-.64,0-.69,0H308.9a1102.64,1102.64,0,0,1-149.66-14c-28.58-4.65-57.1-10.21-84.44-19.58-13.9-4.77-28.2-9.88-38.72-20.43-4.56-4.57-7.95-10.84-6.91-17.58l.19-.72c4.54-12.06,9.49-24.08,14.8-35.72a4.74,4.74,0,0,1,.94-1.55,3.11,3.11,0,0,1,2.52-1.11,29.41,29.41,0,0,0,8.5-2.86C69.77,68,82.2,59,97.45,56.34c17.14-3,35.13,0,52.37-.87,9.25-.46,18.36-2.41,27.59-3.35,25.43-2.72,47.87-18.65,74.15-19.49,20.48-.65,40.54,6.64,61,4.12,23.55-2.91,46.3-14.23,70.67-11.06,32.38,4.21,61.49,23.59,94.15,29.15,12.91,2.2,26.33,1.45,39.39,1.47M374,32.35c-22.21.12-43.06,10.87-66,12-21.52,1.09-43-6.91-64.18-3.82C222.07,43.74,202.58,56,180.59,59c-1.31.18-2.63.31-3.94.44l-.91.1c-10.08,1.15-20,3.22-30.17,3.23-18.14,0-36.38-3.21-54.24,2.44-13,4.1-24,12.78-36.87,17.7q-.42.17-.84.3a25.92,25.92,0,0,1-3.39.87h-.06q-7.52,16.59-13.91,33.65c-.63,4.93,3.1,9.48,6.43,12.42,7.81,6.9,17.77,11.1,27.79,14.89,22.24,8.42,45.69,13.61,69.16,18.05,52.56,9.93,106.07,15.37,159.69,17.27q4.55.17,9.07.28h19.08a1096.8,1096.8,0,0,0,144.35-13.24c28.17-4.45,56.33-9.81,83.48-18.63,13.65-4.43,27.64-9.06,38.48-18.63,3.64-3.21,7.05-7.28,6.43-12.41h0q-5.29-14-11.3-27.79-2.82-6.42-5.8-12.75a72.21,72.21,0,0,1-13.6-1.9c-9.49-2.49-18-8.12-27.63-9.89-20.16-3.7-41.43-.13-61.32-2.79-32.52-4.33-61.85-23.24-94.13-29.11A69.53,69.53,0,0,0,374,32.35" transform="translate(0 0)"/><path class="cls-4" d="M269.8,138.38l-3.59,0H266a265.57,265.57,0,0,0-32.91,2.75l-.35,0-1,.57-.36,1,.53,1,1.09.38c13.66-.24,27.38.34,40.12,1.26,10.26.76,20.43,1,30.3,1.55,6.58.35,13.14.67,19.75,1.07l1.1-.33.57-.94-.3-1.05-1-.62-.21,0-.48-.1-2.08-.43c-7.48-1.54-15-2.9-22.44-4l-.35-.05q-3-.41-6-.78l-.15,0q-2.78-.31-5.55-.58s-3.22-.28-5-.4c-1.43-.09-2.86-.16-4.29-.22h-.21q-3.48-.1-7-.09m275-32.14c-9.82,14.29-30.15,18-44.57,20-4.75.66-9.61,1.27-14.49,1.83l-.22,0c-5.49.67-11,1.28-16.42,2.25l-1,.59-.33,1.05.54.95,1.11.37h.3l.9,0c9.48-.26,19,.1,28.54-.35a101.3,101.3,0,0,0,13.61-1.48c2-.36,3.88-.83,5.78-1.35l.14,0c9.42-2.76,18.22-7.52,24.27-15.14a37.38,37.38,0,0,0,4.42-7.13l.1-1.15-.66-.89-1.08-.11-.94.66" transform="translate(0 0)"/><path class="cls-5" d="M508.83,34.21c-6.88-1.75-15.06,1.19-21.25-1.31-8.88-3.6-16.93-9.92-26.35-12.14-10.86-2.57-23.35-.89-34.45-1-6.53-.07-13-1.58-19.5-2.2C391.2,16,376.86,6.07,360.76,5c-14.17-1-28.06,4.41-42.12,2.5C303.49,5.41,288.4-2,272.73.51c-24.54,3.89-44.6,19.37-71,19.8-10.72.17-21.58-.75-32.12,1.29-6.79,1.32-12.7,5.55-19.51,6.8-7.78,1.42-17.28.39-24.66,3.24-6.1,2.35-9.74,7.27-14.63,11.19-8,6.36-19,11.08-18.8,22.5.59,41.69,71.53,46.87,100.93,50.94,49.65,6.88,99.55,7,149.62,6.65,11.27-.08,21.82,2.88,33.32,1.9,11.18-1,21.73-4.71,32.74-6.35,14.42-2.14,28.92-3.3,43.35-5.23,6.48-.86,13.32-4.41,19.64-6.18,12.4-3.47,25.2-5.11,37.64-8.5,39.28-10.69,40.54-53.92-.4-64.35" transform="translate(0 0)"/><path class="cls-3" d="M464.1,107.28l1.5-.64c1.21-.49,1-.44,1.31-.72l.44-.73a7.78,7.78,0,0,0,.39-1.74l.1-.72v-1.51h-1.53a7.62,7.62,0,0,0-2.05.47l-.48.22a4.08,4.08,0,0,0-.4.26s-.59.71-.59.71a5.08,5.08,0,0,0-.5,1.81c0,.23-.05.46-.06.7s0,.85,0,.85l.4,1.46a10.55,10.55,0,0,0,1.48-.43m-180.21-6.37a4.07,4.07,0,0,0-1.69.56l-.95,2.07a3,3,0,0,0,0,1.2c0,.06.33.62.33.62.4.06.41,0,.41,0l1.4-.35.28-.11,1.07-2.12c-.11-1.74.3-1.62-.52-1.85a2.41,2.41,0,0,0-.36,0m64.5-3.24c-.84.08-.83.74-.83.74a13.2,13.2,0,0,0,0,1.84l1.52,1.49a6.79,6.79,0,0,0,1.54.08s.76,0,1-.55l.09-.72a8.94,8.94,0,0,0-.1-1.2L350,97.82a10.19,10.19,0,0,0-1-.14,3,3,0,0,0-.6,0m-52.66-3.4-.34,1.37c0,.4,0,.54,0,.54l.08.67a1.51,1.51,0,0,0,1.39.93l.8.32c.17.06.17.07.17.07l2-.78a8,8,0,0,0,.3-1.22c.42-3.45,1-1.81-1.86-2.71a5.54,5.54,0,0,1-.58-.16l-1.9,1m19-2c-1.42.08-1,.26-1.14.89l.11,1.67c.1.38.09.31.09.31l2,1.07c.37,0,.31,0,1.37,0l.59-.31a1.51,1.51,0,0,0,0-.5l0-.45a4.85,4.85,0,0,0-.16-1l-1.5-1.51a3.29,3.29,0,0,0-1.36-.13M140.65,78.44s-.1,0,0,0h0l.47.67.55.57,1.84,1.06c1.93.68.88.49,1.49.45l-.3-.59c-.66-.71-.47-.48-.7-.67l-1.91-1c-1.93-.65-1.34-.55-1.4-.52m279.56-6.67-.53.55-.64.79-.48.76a1.81,1.81,0,0,0-.26.78c-.25,1.35-.05.55.82,2.91.05.14.15.38.15.38l.76,1.31,1.3-.78a8.41,8.41,0,0,0,1.11-1.26l.29-.4s.33-.53.33-.53c.78-1.61.31-1.83.31-1.83l-.3-.89c-.31-.62-.32-.63-.74-1.44l-.89-1.23-1.23.88M250.11,59.29l-.6.11c-1,.31-1,.39-2.21.74l-1.39.65.73,1.46a10.26,10.26,0,0,0,1.51,1.42c1.08.74.65.62,1.5.75a9.2,9.2,0,0,0,1.37-.21l.21-.08a12.86,12.86,0,0,0,1.62-.87l1.19-.93-.93-1.18c-.62-.6-1.62-1.36-1.62-1.36-1.5-.9-1.2-.52-1.38-.5m-119.22.09c-.73.15-.77,1.52-.77,1.52,0,.34-.05.84-.05.84l1.51,1.6a15.56,15.56,0,0,0,1.49.62l.54-.86a7.41,7.41,0,0,0,.13-1.13L132.55,60a2.83,2.83,0,0,0-1.09-.58,1.44,1.44,0,0,0-.57-.06m234.63-4-.44.44c-.73.84-1.37,1.55-.84,2.53a6.05,6.05,0,0,0,1.27,1.69l1.08,1.09,1.07-1.09s1.62-1.8,1.5-2.54a2.26,2.26,0,0,0-.57-1.1,7.86,7.86,0,0,0-.94-1h-2.13M224.89,52.73l-.46.6c-.17.36-.39.92-.39.92l-.08.26.55,2.06c1.7,1.82,1.13,1.31,1.54,1.2.57-.15.3.17.8-1.33.17-.49.12-.5.12-.5l-.82-2.13a6,6,0,0,0-.67-.74c-.59-.58-.46-.35-.59-.34m232.68-6.16a4,4,0,0,0-1.3.37l-.2.14c-.85.6-.8.66-.8.66-1.46,1.46-1.27,1.46-1.47,1.76l-.52,1.44,1.43.49c.52.07,1.13.16,2.56.26l1.51-.25c.62-.41.1.06,1.12-.88l.71-.74.51-.61.73-1.32-1.34-.73-.74-.24c-1.9-.49-1.67-.34-2-.36h-.23m-66.36-9.44c-1.73.18-1.2-.19-1.56,1L389.54,40l1.42,1.6a3.58,3.58,0,0,0,1.42,0l.58-.09c.75-.23.65-.33.65-.33s.11-1.11.18-2.11l-1.2-1.78-.39-.07a4.46,4.46,0,0,0-1,0m-111-11.21a6,6,0,0,0-.08,1.55l.43,1.21c.79.53.93.4.93.4.63.15,1.58.31,1.58.31l1.5.2.18-1.51a9.93,9.93,0,0,0,0-1.5,7.76,7.76,0,0,0-.18-1c-.41-.92-1-.76-1-.76l-.37-.09-.74-.1c-1.22-.09-1.56.75-2.24,1.32m63.36-5.35c-.37.08.06-.52-1.16,1-.33.41-.29.44-.29.44l.06,2.27a5.5,5.5,0,0,0,.45,1s.31.54.76.24l1-1,.18-.22.11-2.37c-.51-1.11-.35-.85-.79-1.32a.57.57,0,0,0-.3-.1m-29.09-4.83c-.21.16.23-.3-.92.78l-.4.44c-.69,1-.68.52-.29,1.65l1.18,1.88,1,1.14,1.13-1c1.15-1.09,1.23-1.36,1.23-1.36l.37-.58c.17-.45.25,0,0-.81a8.5,8.5,0,0,0-.93-1.52l-.25-.33a13.25,13.25,0,0,0-2.13-.28" transform="translate(0 0)"/></g></g></g></g></g></svg>