<svg xmlns="http://www.w3.org/2000/svg" viewBox="0 0 662.43 957.06"><defs><style>.cls-1{fill:#ffc276;}.cls-1,.cls-2,.cls-3{fill-rule:evenodd;}.cls-2{fill:#fff;}</style></defs><g id="Layer_2" data-name="Layer 2"><g id="Layer_1-2" data-name="Layer 1"><path class="cls-1" d="M334.67,953.12c174.05,0,235.54-101.29,254.9-209.45s21.48-506.7,21.48-507H58.29s2.12,398.79,21.48,507,80.85,209.45,254.9,209.45Z"/><path class="cls-1" d="M611.05,236.71c0,.42-1.78,333.4-16.86,473.15-24.38-2.35-48-6.24-66.27-7.77-101-8.47-196.32.29-301.49,5.2-53.4,2.49-103-22.41-154.82-36.7C59.77,516.08,58.29,236.71,58.29,236.71Z"/>
<path class="cls-3" d="M57.17,233.27a4.29,4.29,0,0,0-2.32,2.34c-.48,1.5-.16,3.65-.14,5.63.76,106.42,2.67,212.31,7.09,318.66C64,611.76,66.21,663.62,72.14,715.47c5.64,49.27,18.34,98.43,45.23,140,25.19,38.93,63.21,68.65,108.45,84.58,51.52,18.14,108.4,20.14,158.94,13.62,40.73-5.25,81.06-18.22,114.79-42.62,25.42-18.39,46.19-42.87,61.32-70.53,19.16-35,29.75-74.63,34.9-113.43,4.48-33.73,6.63-67.85,8.59-101.88,6.87-119.49,8.89-239.36,10.07-359.22q.14-14,.23-28.09v-1.17a4.1,4.1,0,0,0-2.5-3.46,7.06,7.06,0,0,0-1.12-.18H58.29l-1.12.18Zm550.24,7c-.71,107.05-2.68,214.47-7.2,322-2.07,49.2-4.36,98.44-9.61,147.09-4.71,43.65-14.33,87-35,125.72-17.8,33.29-44.35,62-77.2,81.06C440.72,938,396,947.25,352.94,949.12c-54.87,2.37-110.81-4.42-159-31.23a201.18,201.18,0,0,1-70.54-66.35C99.82,815,87.05,771.61,81.16,729.2c-3.83-27.53-5.84-55.27-7.65-83C68.79,573.69,66.59,501,64.86,428.49Q62.63,335,61.94,241.19v-.87Z"/><path class="cls-2" d="M607.14,465.78c3.33-119.64,3.91-228.93,3.91-229.07H58.29s.4,74.91,2.43,168.61A106.06,106.06,0,0,0,75,413.94c27.88,13.85,45.12-4.51,69.56,22.77C163,457.28,177.13,550.25,204.36,551c34.44,1,39.22-83.92,94.32-89.41,33.47-3.33,44.95,45.48,79.39,47.4,33.95,1.89,47.43-39.28,78-46.58,27.81-6.63,41.55,1,67.57,6.61,25.67,5.58,57.14,5.11,83.47-3.28Z"/><path class="cls-3" d="M57.17,233.27a4.32,4.32,0,0,0-2.32,2.34c-.51,1.61-.15,4.13-.13,6.39q.57,79.5,2.29,159l.05,2.19a13.07,13.07,0,0,0,.24,3.29,5.12,5.12,0,0,0,1.77,2.08c9,6.36,18.81,11.73,29.61,13.77,13.87,2.63,28.7-1,41.77,7a46.11,46.11,0,0,1,16.68,18c4.39,8.49,7.57,17.58,10.74,26.66,6.92,19.74,12.72,40,22.28,58.45,5.1,9.85,11.63,20.43,22.16,22.06,6.77,1,13.88-1.8,19.3-6.39,11.17-9.46,17.53-23.79,24.73-36.51,7.78-13.75,16.13-27.68,28.73-37a46.74,46.74,0,0,1,25.87-9.47c10.45-.36,20,6.27,27.6,13.7,12.25,11.95,22.78,26.73,39.5,32a42.5,42.5,0,0,0,31-2.53c15.37-7.47,25.63-21.88,39.23-32.62a50.21,50.21,0,0,1,19.89-10,82.13,82.13,0,0,1,33.81-.59c14.28,2.79,28.13,7.56,42.63,9.59,24.49,3.42,49.63,2.08,73.29-5.36a5.06,5.06,0,0,0,1.31-.59,4.3,4.3,0,0,0,1.52-2.85q3.13-113.31,3.9-226.31V238a5.72,5.72,0,0,0-.67-3.42,4.34,4.34,0,0,0-2.93-1.5H58.29l-1.12.18ZM476,456.26c-11.41.09-23.2,2.1-32.88,7.47-16.34,9.06-27,25.39-42.1,35.17-10.16,6.58-23.16,8.93-35.06,3.38-11.1-5.17-19.21-15-27.47-23.66-8.84-9.23-18.75-18.46-31.46-20.38a34.66,34.66,0,0,0-6.36-.36c-11.32.39-22.35,4.92-31.35,12-18.24,14.31-27.94,37.4-40.34,57.46-5.86,9.48-12.91,19.9-23.7,20.11-5.33.1-9.5-4.19-12.5-8.17-7-9.3-11.25-20.41-15.42-31.45-6.65-17.66-11.91-35.88-19.06-53.36-3.57-8.72-7.57-17-14.81-24a47.62,47.62,0,0,0-28.85-13.52c-9.14-.84-18.47-.1-27.36-2.27-8.13-2-15.62-6.21-22.58-10.95l-.42-.29Q62.57,322.84,61.94,242v-1.63H607.41q-.75,111.42-3.81,222.56v.21c-26.35,7.78-55.14,7.93-81.53,1.92-15-3.42-29.63-8.61-45-8.75Z"/><path class="cls-3" d="M652.9,234a3.62,3.62,0,0,1,1.78,1.25,7,7,0,0,1,.92,2.08c5.64,16.69,9.35,34.91,4.79,51.6-1.73,6.3-7.16,10.89-12.78,14.68-15.75,10.63-34.27,16.76-52.4,22.19-40.86,12.25-83.37,18.9-126.11,23.42a1335.83,1335.83,0,0,1-134.44,6.9h-6.94c-58.64-.27-116.9-3.41-174.5-12-38.14-5.66-76.25-13.07-112-27.26-10.31-4.1-20.56-8.66-29.41-15.36C7.48,298.24,3.45,294.28,2,289-2.4,272.9,1.14,255,6.2,239.12c.31-1,.62-1.93,1-2.88l.53-1A3.57,3.57,0,0,1,9.48,234a6.68,6.68,0,0,1,1.09-.17H651.81l1.09.17ZM13.17,241.08C8.84,254.53,5.92,268.88,8,282.59a39.4,39.4,0,0,0,.79,3.89c1.41,5.51,6.63,9.08,11.78,12.33,15.13,9.56,32.44,15.28,49.72,20.41,43.54,12.91,88.78,19.53,134.18,23.89,41,3.93,82.17,5.61,123.32,5.8h6.73c66.54-.3,134.43-4.2,200.35-16.32,31.14-5.72,62.38-12.79,91.19-25.6,8.2-3.65,16.47-7.63,23-13.61a14,14,0,0,0,4.47-6.79c3-11.41,1.2-23.77-1.54-35.43q-1.17-5-2.71-9.87l-.07-.21Z"/><path class="cls-2" d="M331,174.06c176.85,0,320.42,28.41,320.42,63.4S507.85,300.87,331,300.87,10.57,272.46,10.57,237.46s143.58-63.4,320.43-63.4Z"/><path class="cls-3" d="M332,170.44c62.23.06,124.4,3.17,185.7,11.86,32.34,4.58,64.8,10.27,95.29,21.21,12.87,4.62,26,9.66,35.57,19.77,4.15,4.39,7.22,10.39,6.26,16.67-1.21,7.94-7.94,14.21-15.14,18.92-10,6.51-21.22,10.82-32.57,14.57-30.68,10.12-62.79,15.6-95,20-73.41,9.94-147.64,12.4-221.06,10.6-57.08-1.4-114.2-5.4-170.38-15-27.45-4.7-54.9-10.24-80.78-21-9.95-4.14-20-9-27.06-16.83C8.06,245.75,5.33,238.25,8.23,231c3-7.55,10-12.65,16.71-16.64,12-7.12,25.35-11.72,38.82-15.69C90,191,117.1,186.14,144.27,182.3c60.65-8.6,122.21-11.72,183.62-11.85ZM330,177.68c-60.29,0-120.56,3-180,11.12C118.94,193,87.94,198.32,58.11,208c-13.6,4.43-27.71,9.29-38,18.74-.48.45-1,.91-1.41,1.39s-.68.73-1,1.11-.46.55-.68.84c-2.33,3-3.64,7.21-2.15,11,2.73,6.95,10.11,11.36,17.16,15.13C48,264.78,65.69,269.68,83.41,274c44.48,10.8,90.13,15.92,135.89,19.3,84.69,6.26,170.31,5.6,253.7-2.6,35.55-3.5,71-8.3,105.58-16.7,17.68-4.29,35.47-9.24,51.34-17.73,5.62-3,11.23-6.48,15-11.43,1.91-2.49,3.23-5.54,2.78-8.68-.81-5.71-5.8-9.72-10.14-12.79-9.88-7-21.51-11.33-33.19-15.15-17.53-5.75-35.57-9.8-53.72-13.2-46.11-8.65-93-12.95-139.81-15.33-26.92-1.37-53.69-2-80.89-2Z"/><path class="cls-3" d="M350,300.35a3.25,3.25,0,0,1,1.05.21,3.54,3.54,0,0,1,2.41,3.41v16.66c-.06,2.82-4,4.7-6.12,2.61a3.71,3.71,0,0,1-1.11-2.61V304a3.08,3.08,0,0,1,.2-1.21,3.55,3.55,0,0,1,3.41-2.41Zm59.5-.71a3.42,3.42,0,0,1,1,.16c2.83.88,3.22,5.31,3.68,9.08.25,2.14.4,4.3.54,6.45.06,1,.15,2.39.15,2.39,0,3.15-4.81,5.11-6.71,1.95-.78-1.29-.6-3.09-.71-4.79a51.3,51.3,0,0,0-1.5-10.64s-.13-4.61,3.56-4.6Zm-163.84.71a3.73,3.73,0,0,1,3.54,3.62,127.94,127.94,0,0,1-.93,13.54s-.78,2.7-2.84,3.14a3.74,3.74,0,0,1-4.36-3.79c.31-4.36.89-8.61.9-12.9,0,0,.69-3.5,3.55-3.61Zm-81.45-7.09a2.65,2.65,0,0,1,2.16.86c1.67,1.43,1.08,4.08.89,6.3-.38,4.42-.3,8.86-.31,13.3,0,0,0,2.45-1.55,3.5a3.73,3.73,0,0,1-5.68-2.82,101.36,101.36,0,0,1,.68-17.75c.11-.76,1.1-3.36,3.65-3.39Zm313.52,0a2.74,2.74,0,0,1,1.06.23c1.81.69,2.3,2.4,2.35,5.37.1,5.09.35,10.19-.56,15.17,0,0-.88,2.87-3.13,3.17a3.73,3.73,0,0,1-4-4.39c0-.14.05-.29.08-.44.84-5,.38-10.18.36-15.24a4.74,4.74,0,0,1,1-2.79,3.35,3.35,0,0,1,2.66-1.09Zm49.63-5.68a3.55,3.55,0,0,1,.85.15c2.43.75,2.85,3.93,3.59,6.53,1.06,3.7,2.31,7.42,2.56,11.28.2,3-4.46,5.25-6.54,2.34-.84-1.18-.82-2.85-1.13-4.4-.75-3.66-1.85-7.24-2.88-10.84,0,0-.63-2.62.81-4a3.74,3.74,0,0,1,2.74-1ZM87.54,277.66a3,3,0,0,1,1.11.23c3.23,1.22,2.21,6.8,2,11-.14,3.21-.29,6.52.75,9.57a4.27,4.27,0,0,1-.22,2.83c-1.35,2.58-5.75,2.43-6.83-1.13-1.8-5.92-.67-12.43-.61-18.64,0-1,.95-3.8,3.62-3.85Zm498.64-2.13a3.16,3.16,0,0,1,1.09.24,3.73,3.73,0,0,1,2.32,3.37V293c-.07,3.16-5,4.93-6.79,1.75a3.56,3.56,0,0,1-.4-1.19,5.07,5.07,0,0,1,0-.56V279.14a3.74,3.74,0,0,1,3.69-3.61ZM31.59,260.64a2.88,2.88,0,0,1,.92.19c2.75.94,2.68,4.88,3.13,8.06,1,6.65,1.92,13.39,4.79,19.44,0,0,.78,2.69-.79,4.18A3.81,3.81,0,0,1,33.71,291c-.21-.46-.41-.92-.61-1.39-3.18-7.7-4.11-16.18-5.28-24.51a5.09,5.09,0,0,1,0-1.7,3.69,3.69,0,0,1,3.2-2.79,3.78,3.78,0,0,1,.57,0Zm601.28-2.13a3.06,3.06,0,0,1,1.28.27c1.49.6,2.27,1.9,2.24,4-.09,6.16-1.36,12.27-2.59,18.34l-.12.59c-.6,2.67-4.53,3.88-6.38,1.53-1.39-1.76-.39-4.5.12-7.07a72.57,72.57,0,0,0,1.74-14.05s.56-3.48,3.54-3.61Z"/><path class="cls-3" d="M335.46,0c36.17.61,72.67,5.8,106.28,19.33,39.09,15.73,73.38,42.17,100.64,74.42,30.47,36.06,52.75,78.68,69.74,122.6.46,1.19.92,2.37,1.37,3.56s.9,2.75.9,2.8c0,.24.07.49.09.73.76,7.81-4.59,15.11-11.29,20.28-10.63,8.21-23.53,13.07-36.52,17.41-30.51,10.18-62.26,15.93-93.87,20.68A1120.73,1120.73,0,0,1,336,294l-.65,0-.69,0H316a1102.93,1102.93,0,0,1-149.67-14c-28.58-4.66-57.1-10.22-84.43-19.59-13.91-4.76-28.21-9.87-38.73-20.42-4.56-4.58-7.95-10.85-6.91-17.58l.19-.72c12.17-32.34,27-63.75,46.05-93.17C103,96.92,128.51,68.11,159.6,46.17,194.31,21.69,235.42,7.06,278.1,2.23,290.68.81,303.32.19,316,0h19.5ZM316,7.23c-36.25.55-72.61,5.73-105.94,19.4C176.22,40.52,146,62.8,121.6,89.46c-35.25,38.47-59.94,85.67-78.3,134.43-.63,4.93,3.1,9.48,6.43,12.43,7.82,6.89,17.77,11.09,27.79,14.89,22.25,8.41,45.69,13.6,69.17,18,52.55,9.93,106.06,15.37,159.69,17.27q4.53.17,9.06.28h19.08a1094.79,1094.79,0,0,0,145.06-13.35c27.92-4.44,55.78-9.75,82.77-18.51,13.65-4.44,27.64-9.07,38.48-18.63.51-.46,1-.92,1.49-1.41s.72-.73,1.06-1.11.52-.61.77-.92.38-.49.56-.73a11.94,11.94,0,0,0,2.55-8.25h0c-14.5-38.52-32.81-75.7-57.38-109-24.24-32.81-54.83-61.22-91.44-80C421.2,15.79,378.72,8.07,337,7.27c-7-.13-14,0-21,0Z"/><path class="cls-3" d="M327.66,0c-24.23.06-48.64,1.67-72,7.67C246.46,10,237,12.6,229.78,19c-2.89,2.58-5.19,6.26-4.77,10.31.62,6.06,6.65,10.42,12.61,13.35,12,5.9,25.57,8.43,39,10.42a353.64,353.64,0,0,0,103.44,0c13.39-2,27-4.54,39-10.42,7.28-3.57,15.24-9.52,12-18-2.12-5.51-7.73-8.68-12.71-11-13.15-6.21-27.84-8.72-42.48-10.66A363.27,363.27,0,0,0,327.66,0ZM329,7.23c24.79.06,50.09,1.63,73.77,8.4,7.13,2,14.72,4,20,9.4.16.16.31.33.45.5s.24.28.34.42a3.74,3.74,0,0,1,.9,2.9c-.51,2.46-3.06,4.15-5.38,5.57-8.82,5.44-19.46,7.75-29.82,9.76-27.69,5.39-56.13,6.22-84.37,4.51-19.21-1.16-38.54-3.12-57-9.62-4.75-1.67-9.57-3.54-13.31-6.91-1.16-1-2.34-2.32-2.34-3.85,0-2.56,2.51-4.15,4.28-5.37,7.08-4.87,15.74-7.09,24.3-9.08,22.28-5.2,45.37-6.65,68.18-6.63Zm-1,4.07c-15,0-30.31.94-44.31,5.64-6,2-13,4.93-13,11.37,0,4.49,4.58,7.9,9.18,9.9a76.5,76.5,0,0,0,18.53,4.9,181.72,181.72,0,0,0,65.11-.93c6.45-1.32,13.17-2.87,18.39-6.76,3.12-2.34,5.31-6.35,3.46-10.24-1.77-3.73-5.78-5.7-9.36-7.16-10.09-4.11-21.18-5.38-32.23-6.18-5.24-.37-10.47-.54-15.74-.54Zm.7,7.23c12.94,0,26,.88,38.32,4.15,3.87,1,8,2.11,10.93,4.64.65.55,1.29.73.33,1.68-2.65,2.62-6.68,3.67-10.64,4.76-12,3.32-24.65,4.19-37.23,4.31-14.71.14-29.77-.57-43.69-5-3.14-1-6.67-2-8.59-4.39-.61-.77.16-1,.77-1.46,3.07-2.5,7.2-3.59,11.23-4.64,12.29-3.19,25.12-4,37.89-4Z"/></g></g></svg>