<svg xmlns="http://www.w3.org/2000/svg" viewBox="0 0 169.12 135.69"><defs><style>.cls-1,.cls-2,.cls-7,.cls-8{fill:#FFB6A1;}.cls-2{font-size:36px;}.cls-2,.cls-7,.cls-8{font-family:Noteworthy-Bold, Noteworthy;font-weight:700;}.cls-3{letter-spacing:0.02em;}.cls-4{letter-spacing:-0.03em;}.cls-5{letter-spacing:-0.18em;}.cls-6{letter-spacing:-0.02em;}.cls-7,.cls-8{font-size:12px;stroke:#FFB6A1;stroke-miterlimit:10;}.cls-7{stroke-width:0.75px;}.cls-8{stroke-width:0.5px;}.cls-9{letter-spacing:-0.09em;}</style></defs><g id="Layer_2" data-name="Layer 2"><g id="Layer_1-2" data-name="Layer 1"><path class="cls-1" d="M152.35,135.69H9.84a1,1,0,0,1,0-2H152.35a1,1,0,0,1,0,2Z"/><path class="cls-1" d="M108.49,28.24a2.5,2.5,0,0,0-1-1.15,2.87,2.87,0,0,0-1.55-.4h-3.16V22.47a10.58,10.58,0,0,0-3.11-7,16.72,16.72,0,0,0-4.21-2.78,41.23,41.23,0,0,1-6.77-3.73,15.66,15.66,0,0,1-5.41-7.55,2,2,0,0,0-.8-1A2.09,2.09,0,0,0,81.36,0a2.13,2.13,0,0,0-1.15.34,2.1,2.1,0,0,0-.8,1A16.62,16.62,0,0,1,74.63,8.6c-2.78,2.41-6,3.48-8.95,5.09a11.85,11.85,0,0,0-3.87,3.2,10.71,10.71,0,0,0-2,5.57v4.23h-.91a4.08,4.08,0,0,0-4.09,4.08V45.4a8.89,8.89,0,0,0,1.54,5.34,5.55,5.55,0,0,0,2.08,1.75,6.16,6.16,0,0,0,2.57.62,18.28,18.28,0,0,0,2.43,4.78A43.49,43.49,0,0,0,71.88,67a27.41,27.41,0,0,0,5,3.27,11.42,11.42,0,0,0,4.94,1.34,13.32,13.32,0,0,0,6.58-2.26A40.71,40.71,0,0,0,97.78,61a34,34,0,0,0,3.37-4.68,14.82,14.82,0,0,0,1.48-3.25,6.32,6.32,0,0,0,2.57-.62A6,6,0,0,0,108,49.57a9.84,9.84,0,0,0,.84-4.17V30.77A6.74,6.74,0,0,0,108.49,28.24Zm-43.28-11a14.94,14.94,0,0,1,3.62-2.32,38.84,38.84,0,0,0,7.06-4,18.58,18.58,0,0,0,6-8.37A18,18,0,0,0,87,10c3.14,2.68,6.61,3.8,9.17,5.31A9.72,9.72,0,0,1,99.29,18a9.06,9.06,0,0,1,1.53,4.6v5.16h0v3L98.45,26.1A11.75,11.75,0,0,0,88,19.69H75.65A11.72,11.72,0,0,0,65.19,26.1l-2.37,4.64V22.61A7.92,7.92,0,0,1,65.21,17.22Zm40.61,28.4a5,5,0,0,1-.76,4,3.47,3.47,0,0,1-1.27,1.08,6.08,6.08,0,0,1-1,.35V47.11S102,46,101.33,46s-.51,1.12-.51,1.12V52a14.19,14.19,0,0,1-2.32,4.8,42.19,42.19,0,0,1-8.09,8.71,26.18,26.18,0,0,1-4.63,3,9.4,9.4,0,0,1-4,1.13,11.5,11.5,0,0,1-5.51-2A38.83,38.83,0,0,1,67.4,59.8a32.67,32.67,0,0,1-3.16-4.42A11,11,0,0,1,62.82,52V47.11S62.18,46,61.57,46s-.75,1.12-.75,1.12v3.48a4.68,4.68,0,0,1-1.45-.35,3.88,3.88,0,0,1-1.87-1.86,7.19,7.19,0,0,1-.68-3.22V30.53a1.92,1.92,0,0,1,2-1.84h1v6.52a1.12,1.12,0,0,0,.87,1.09A1.14,1.14,0,0,0,62,35.72l4.56-8.87A9.5,9.5,0,0,1,75,21.69H87.66a9.52,9.52,0,0,1,8.46,5.16l4.56,8.87a1.14,1.14,0,0,0,1.27.58,1.12,1.12,0,0,0,.87-1.09V28.69h2.74s.34.5.36.51l0,.06a1.58,1.58,0,0,1,.14.57,1.45,1.45,0,0,1-.29,1.15Z"/><path class="cls-1" d="M76.61,40a.56.56,0,1,0-.92-.64,6.15,6.15,0,0,1-10.11,0,.56.56,0,0,0-.78-.14.57.57,0,0,0-.14.78,7.27,7.27,0,0,0,12,0Z"/><path class="cls-1" d="M97.32,39.38a6.15,6.15,0,0,1-10.11,0,.56.56,0,0,0-.92.64,7.27,7.27,0,0,0,11.95,0,.57.57,0,0,0-.14-.78A.56.56,0,0,0,97.32,39.38Z"/><path class="cls-1" d="M76.56,50.82a2.89,2.89,0,0,0,2.34,2.83,3,3,0,0,0,5.84,0A2.88,2.88,0,0,0,84.82,48V41.59S84.29,41,84,41s-.16.56-.16.56V48.3a.59.59,0,0,0,.56.59,1.88,1.88,0,0,1,0,3.76.58.58,0,0,0-.56.55,2,2,0,0,1-4,0,.58.58,0,0,0-.56-.55,1.88,1.88,0,0,1,0-3.76.59.59,0,0,0,.56-.59V41.59S79.33,41,79,41s-.2.56-.2.56V48A2.88,2.88,0,0,0,76.56,50.82Z"/><path class="cls-1" d="M88,59.48l-2.2.47a20.28,20.28,0,0,1-4.39.47,20.86,20.86,0,0,1-4.52-.49l-2-.45a1.12,1.12,0,0,0-.49,2.19l2,.44a22.67,22.67,0,0,0,9.88,0l2.2-.47A1.12,1.12,0,0,0,88,59.48Z"/><path class="cls-1" d="M70.74,34.44h0a5.54,5.54,0,0,1,1.68-.26,5.62,5.62,0,0,1,3.43,1.17,1.12,1.12,0,1,0,1.37-1.77,7.84,7.84,0,0,0-4.8-1.65,7.68,7.68,0,0,0-2.35.37,1.12,1.12,0,0,0,.67,2.14Z"/><path class="cls-1" d="M87.05,35.35a5.62,5.62,0,0,1,3.43-1.17,5.43,5.43,0,0,1,1.67.26,1.12,1.12,0,0,0,.68-2.14h0a7.68,7.68,0,0,0-2.35-.37,7.84,7.84,0,0,0-4.8,1.65,1.12,1.12,0,1,0,1.37,1.77Z"/><path class="cls-1" d="M81.45,32.08a2.6,2.6,0,1,0-2.6-2.59A2.59,2.59,0,0,0,81.45,32.08Zm0-4.07A1.48,1.48,0,1,1,80,29.49,1.48,1.48,0,0,1,81.45,28Z"/><text class="cls-2" transform="translate(2.3 115.3)">B<tspan class="cls-3" x="25.6" y="0">u</tspan><tspan x="42.84" y="0">hd</tspan><tspan class="cls-4" x="77.8" y="0">d</tspan><tspan x="94.95" y="0">a</tspan><tspan class="cls-5" x="114.21" y="0">T</tspan><tspan class="cls-6" x="131.13" y="0">e</tspan><tspan x="147.55" y="0">a</tspan></text><path class="cls-1" d="M39.78,33.69H1a1,1,0,0,1,0-2H39.78a1,1,0,1,1,0,2Z"/><path class="cls-1" d="M39.78,52.69H1a1,1,0,0,1,0-2H39.78a1,1,0,0,1,0,2Z"/><path class="cls-1" d="M155.47,30.69H116.69a1,1,0,0,1,0-2h38.78a1,1,0,0,1,0,2Z"/><path class="cls-1" d="M155.47,49.69H116.69a1,1,0,0,1,0-2h38.78a1,1,0,0,1,0,2Z"/><text class="cls-7" transform="translate(116.95 44.48)">2020</text><text class="cls-8" transform="translate(5.16 47.76)"><tspan class="cls-9">E</tspan><tspan x="6.99" y="0">STD</tspan></text></g></g></svg>