<svg xmlns="http://www.w3.org/2000/svg" xmlns:xlink="http://www.w3.org/1999/xlink" viewBox="0 0 480.94 430.95"><defs><style>.cls-1{fill:none;}.cls-2{clip-path:url(#clip-path);}.cls-3{fill:#452100;}.cls-3,.cls-4{fill-rule:evenodd;}</style><clipPath id="clip-path" transform="translate(0 0)"><rect class="cls-1" width="480.94" height="430.95"/></clipPath></defs><g id="Layer_2" data-name="Layer 2"><g id="Layer_1-2" data-name="Layer 1"><g id="chocalte_pearl"><g class="cls-2"><g class="cls-2"><path class="cls-3" d="M480.94,285.76c-150-119.75-92.71.95-211.23,40.94-45,.06-43.45-74.23-79.84-65.74-34.85,8.12-1.1,99.1-68.21,104.27C-189.59,117,271.24,680.75,480.94,285.76" transform="translate(0 0)"/><path class="cls-4" d="M473.91,129.87c4.11-.78,5.82-4.31,5.31-8.6-8.26-2.15-10.67,10.78-5.31,8.6m-255.63-9c-3.09.25-2.71,1.9-3.76,3.73-.4,7.7,8.67-3.18,3.76-3.73m91.5-4.6c-4.34,2.29,2.2,8.35,4.46,5.1.95-2.44-1.88-5.67-4.46-5.1m-74.72-4.83c-2.13,4.56,2.49,6.64,5.74,4.43,2.57-6.07-1.34-6.62-5.74-4.43M262,108.64c-4.76,1,.84,7.73,4.27,5.11.3-2.8-1.26-5.23-4.27-5.11M15.07,89c.12,1.36,5.23,4.19,6.12,3.91C21,90.93,15.23,89,15.07,89m396.59-9.47c-3.86,3.19-3,6.33-.26,10.61,6.49-1.6,5.23-13.91.26-10.61M170.35,61.79c-12.56,1.63,0,11.54,5.57,4.31-.87-1.52-4.83-5-5.57-4.31M1.23,61.91c-3.41,2.44,1.16,6.19,3.08,6.51,2.16-2-.19-6.54-3.08-6.51m332.84-5.63c-3.69,2.81-1.55,5.34,1.52,8.16,4.07-2.35,4.78-9.38-1.52-8.16m-199.5-3.8c-2.81,1.56.35,8.06,1.65,7.16,2.37-.59.57-6.79-1.65-7.16m330.09-8.74c-8.35,2.94-6.84,9.06,1.71,6.91,5.72-3.7,4.52-6.89-1.71-6.91m-94.15-13.4c-4.11-.35-2.21,5-.34,6.36,5.75,1.63,4.81-6.67.34-6.36M213,14.45c-1.15,5.15,3.21,4.73,6.2,5.2,1.86-5.27-2.34-9.91-6.2-5.2m89.9-7.6c-1.94-.43-3.47,7.07-.26,7.05,2.21-1.14,2.55-6.19.26-7M261.67,0c-4.05,1.87-1.81,5.89.8,8.36,4.74-2.88,5.45-8.25-.8-8.36" transform="translate(0 0)"/><path class="cls-4" d="M342.32,410.54c-7.4-35.88-64.38-25.49-58,11.08a302.06,302.06,0,0,0,58-11.08m-132.24-49c-38.34-.54-38.35,59.5,0,58.95,38.34.54,38.34-59.5,0-58.95m-86.74,39.65c37-1.69,35.27-59.55-1.94-58.88-41,3.23-35.87,53.23,1.94,58.88m299.74-34.35c-21.11-22.48-60.63,2.74-48.47,31.48a204.31,204.31,0,0,0,48.47-31.48M269.2,328.7c-38.35-.55-38.35,59.49,0,58.94,38.34.55,38.34-59.49,0-58.94m73.86-29.47c-38.35-.55-38.35,59.49,0,58.94,38.35.55,38.35-59.49,0-58.94M205.9,276.67c-38.35-.55-38.35,59.49,0,58.94,38.34.55,38.34-59.49,0-58.94m-72.4,0c-38.35-.55-38.35,59.49,0,58.94,38.35.55,38.35-59.49,0-58.94m306-6.21c-38.35-.55-38.35,59.49,0,58.94,38.35.55,38.35-59.49,0-58.94m-377.93-.17c-38.34-.55-38.34,59.49,0,58.94,38.34.55,38.34-59.49,0-58.94m222.37-30c-38.35-.54-38.35,59.5,0,59,38.35.54,38.35-59.5,0-59m78.38-8.13c-38.35-.55-38.35,59.49,0,58.94,38.35.55,38.35-59.49,0-58.94M103.94,218c-38.35-.54-38.35,59.5,0,59,38.35.54,38.35-59.5,0-59M32,202.68c-38.34-.55-38.34,59.49,0,58.94,38.34.55,38.34-59.49,0-58.94m412-14.11c-38.35-.55-38.35,59.5,0,59,38.35.54,38.34-59.5,0-59m-208.56,0c-38.35-.55-38.35,59.5,0,59,38.35.54,38.35-59.5,0-59" transform="translate(0 0)"/></g></g></g></g></g></svg>