<svg xmlns="http://www.w3.org/2000/svg" xmlns:xlink="http://www.w3.org/1999/xlink" viewBox="0 0 470.28 233.05"><defs><style>.cls-1{fill:none;}.cls-2{clip-path:url(#clip-path);}.cls-3{fill-rule:evenodd;}</style><clipPath id="clip-path" transform="translate(0)"><rect class="cls-1" width="470.28" height="233.05"/></clipPath></defs><g id="Layer_2" data-name="Layer 2"><g id="Layer_1-2" data-name="Layer 1"><g id="black_pearl"><g class="cls-2"><g class="cls-2"><path class="cls-3" d="M339.44,222c-8.7-36.17-63.25-26.15-58,11.08a302.06,302.06,0,0,0,58-11.08m-132.23-49c-38.86.68-38.85,58.27,0,58.95,38.85-.68,38.84-58.28,0-58.95m-86.75,39.65c37.26-2.41,35.57-58.85-1.93-58.88C95.94,153.06,81.1,180,93.36,198.63a213.48,213.48,0,0,0,27.1,14M420.2,178.24c-21.66-22.37-60.25,2.33-48.47,31.48a204.1,204.1,0,0,0,48.47-31.48M266.33,140.13c-38.86.68-38.85,58.27,0,58.94,38.85-.67,38.84-58.27,0-58.94m73.85-29.47c-38.85.67-38.85,58.27,0,58.94,38.85-.68,38.85-58.27,0-58.94M203,88.1c-38.85.68-38.84,58.27,0,58.94,38.85-.67,38.84-58.27,0-58.94m-72.4,0c-38.85.68-38.85,58.27,0,58.94,38.85-.67,38.85-58.27,0-58.94m306-6.21c-38.85.68-38.85,58.27,0,58.94,38.86-.67,38.85-58.27,0-58.94M58.7,81.72c-38.86.68-38.85,58.27,0,58.94,38.85-.67,38.84-58.27,0-58.94m222.36-30c-38.85.68-38.85,58.28,0,59,38.85-.68,38.85-58.28,0-58.95m78.38-8.13c-38.85.68-38.84,58.27,0,58.94,38.85-.67,38.85-58.27,0-58.94M101.06,29.47c-38.85.68-38.84,58.28,0,59,38.86-.68,38.85-58.28,0-58.95M29.14,14.11c-38.86.68-38.85,58.27,0,58.94C68,72.38,68,14.78,29.14,14.11M441.14,0c-38.85.68-38.85,58.27,0,59C480,58.27,480,.67,441.14,0M232.58,0c-38.85.68-38.84,58.27,0,59,38.86-.68,38.85-58.28,0-58.95" transform="translate(0)"/></g></g></g></g></g></svg>