<svg xmlns="http://www.w3.org/2000/svg" xmlns:xlink="http://www.w3.org/1999/xlink" viewBox="0 0 469.52 233.05"><defs><style>.cls-1{fill:none;}.cls-2{clip-path:url(#clip-path);}.cls-3{fill:#fff;fill-rule:evenodd;}</style><clipPath id="clip-path" transform="translate(0 0)"><rect class="cls-1" width="469.52" height="233.05"/></clipPath></defs><g id="Layer_2" data-name="Layer 2"><g id="Layer_1-2" data-name="Layer 1"><g id="white_pearl"><g class="cls-2"><g class="cls-2"><path class="cls-3" d="M339.06,222c-7.4-35.88-64.38-25.49-58,11.08a302,302,0,0,0,58-11.08M206.83,173c-38.35-.55-38.35,59.49,0,58.94,38.35.55,38.35-59.5,0-58.94m-86.75,39.64c37-1.68,35.28-59.55-1.93-58.88-41,3.23-35.88,53.24,1.93,58.88m299.74-34.35c-21.1-22.48-60.62,2.75-48.47,31.48a203.8,203.8,0,0,0,48.47-31.48M266,140.13c-38.35-.54-38.35,59.5,0,59,38.35.54,38.35-59.5,0-59m73.85-29.47c-38.34-.55-38.34,59.49,0,58.94,38.34.55,38.34-59.49,0-58.94M202.65,88.1c-38.35-.54-38.35,59.5,0,59,38.35.54,38.35-59.5,0-59m-72.4,0c-38.35-.54-38.35,59.5,0,59,38.34.54,38.34-59.5,0-59m306-6.21c-38.34-.54-38.34,59.5,0,59,38.34.54,38.34-59.5,0-58.95M58.32,81.72c-38.35-.54-38.35,59.5,0,58.95,38.35.54,38.35-59.5,0-58.95m222.37-30c-38.35-.55-38.35,59.49,0,58.94,38.34.55,38.34-59.49,0-58.94m78.37-8.14c-38.34-.54-38.34,59.5,0,59,38.34.54,38.34-59.5,0-58.95M100.69,29.48c-38.35-.55-38.35,59.49,0,58.94,38.35.55,38.35-59.49,0-58.94M28.76,14.11c-38.35-.54-38.35,59.5,0,59,38.35.54,38.35-59.5,0-58.95M440.76,0c-38.35-.54-38.35,59.5,0,59,38.35.54,38.35-59.5,0-58.95M232.21,0c-38.35-.54-38.35,59.5,0,59,38.35.54,38.35-59.5,0-58.95" transform="translate(0 0)"/></g></g></g></g></g></svg>